<svg width="18" height="18" viewBox="0 0 18 18" fill="none" xmlns="http://www.w3.org/2000/svg">
<path d="M3.5 15.75C3.0875 15.75 2.73438 15.6031 2.44063 15.3094C2.14688 15.0156 2 14.6625 2 14.25V3.75C2 3.3375 2.14688 2.98438 2.44063 2.69063C2.73438 2.39688 3.0875 2.25 3.5 2.25H14C14.4125 2.25 14.7656 2.39688 15.0594 2.69063C15.3531 2.98438 15.5 3.3375 15.5 3.75V14.25C15.5 14.6625 15.3531 15.0156 15.0594 15.3094C14.7656 15.6031 14.4125 15.75 14 15.75H3.5ZM3.5 14.25H14V6H3.5V14.25Z" fill="#1C1B1F"/>
</svg>
