<svg width="88" height="24" viewBox="0 0 88 24" fill="none" xmlns="http://www.w3.org/2000/svg">
<rect x="0.5" y="0.5" width="87" height="23" rx="4.5" fill="#EAFAD9"/>
<rect x="0.5" y="0.5" width="87" height="23" rx="4.5" stroke="#B8EF81"/>
<path d="M10.1406 13.2871H11.2656C11.207 13.8262 11.0527 14.3086 10.8027 14.7344C10.5527 15.1602 10.1992 15.498 9.74219 15.748C9.28516 15.9941 8.71484 16.1172 8.03125 16.1172C7.53125 16.1172 7.07617 16.0234 6.66602 15.8359C6.25977 15.6484 5.91016 15.3828 5.61719 15.0391C5.32422 14.6914 5.09766 14.2754 4.9375 13.791C4.78125 13.3027 4.70312 12.7598 4.70312 12.1621V11.3125C4.70312 10.7148 4.78125 10.1738 4.9375 9.68945C5.09766 9.20117 5.32617 8.7832 5.62305 8.43555C5.92383 8.08789 6.28516 7.82031 6.70703 7.63281C7.12891 7.44531 7.60352 7.35156 8.13086 7.35156C8.77539 7.35156 9.32031 7.47266 9.76562 7.71484C10.2109 7.95703 10.5566 8.29297 10.8027 8.72266C11.0527 9.14844 11.207 9.64258 11.2656 10.2051H10.1406C10.0859 9.80664 9.98438 9.46484 9.83594 9.17969C9.6875 8.89062 9.47656 8.66797 9.20312 8.51172C8.92969 8.35547 8.57227 8.27734 8.13086 8.27734C7.75195 8.27734 7.41797 8.34961 7.12891 8.49414C6.84375 8.63867 6.60352 8.84375 6.4082 9.10938C6.2168 9.375 6.07227 9.69336 5.97461 10.0645C5.87695 10.4355 5.82812 10.8477 5.82812 11.3008V12.1621C5.82812 12.5801 5.87109 12.9727 5.95703 13.3398C6.04688 13.707 6.18164 14.0293 6.36133 14.3066C6.54102 14.584 6.76953 14.8027 7.04688 14.9629C7.32422 15.1191 7.65234 15.1973 8.03125 15.1973C8.51172 15.1973 8.89453 15.1211 9.17969 14.9688C9.46484 14.8164 9.67969 14.5977 9.82422 14.3125C9.97266 14.0273 10.0781 13.6855 10.1406 13.2871ZM12.7555 12.9004V12.7656C12.7555 12.3086 12.8219 11.8848 12.9547 11.4941C13.0875 11.0996 13.2789 10.7578 13.5289 10.4688C13.7789 10.1758 14.0816 9.94922 14.4371 9.78906C14.7926 9.625 15.191 9.54297 15.6324 9.54297C16.0777 9.54297 16.4781 9.625 16.8336 9.78906C17.193 9.94922 17.4977 10.1758 17.7477 10.4688C18.0016 10.7578 18.1949 11.0996 18.3277 11.4941C18.4605 11.8848 18.527 12.3086 18.527 12.7656V12.9004C18.527 13.3574 18.4605 13.7812 18.3277 14.1719C18.1949 14.5625 18.0016 14.9043 17.7477 15.1973C17.4977 15.4863 17.1949 15.7129 16.8395 15.877C16.4879 16.0371 16.0895 16.1172 15.6441 16.1172C15.1988 16.1172 14.7984 16.0371 14.443 15.877C14.0875 15.7129 13.7828 15.4863 13.5289 15.1973C13.2789 14.9043 13.0875 14.5625 12.9547 14.1719C12.8219 13.7812 12.7555 13.3574 12.7555 12.9004ZM13.8395 12.7656V12.9004C13.8395 13.2168 13.8766 13.5156 13.9508 13.7969C14.025 14.0742 14.1363 14.3203 14.2848 14.5352C14.4371 14.75 14.6266 14.9199 14.8531 15.0449C15.0797 15.166 15.3434 15.2266 15.6441 15.2266C15.941 15.2266 16.2008 15.166 16.4234 15.0449C16.65 14.9199 16.8375 14.75 16.9859 14.5352C17.1344 14.3203 17.2457 14.0742 17.3199 13.7969C17.398 13.5156 17.4371 13.2168 17.4371 12.9004V12.7656C17.4371 12.4531 17.398 12.1582 17.3199 11.8809C17.2457 11.5996 17.1324 11.3516 16.9801 11.1367C16.8316 10.918 16.6441 10.7461 16.4176 10.6211C16.1949 10.4961 15.9332 10.4336 15.6324 10.4336C15.3355 10.4336 15.0738 10.4961 14.8473 10.6211C14.6246 10.7461 14.4371 10.918 14.2848 11.1367C14.1363 11.3516 14.025 11.5996 13.9508 11.8809C13.8766 12.1582 13.8395 12.4531 13.8395 12.7656ZM21.3645 10.9199V16H20.2746V9.66016H21.3059L21.3645 10.9199ZM21.1418 12.5898L20.6379 12.5723C20.6418 12.1387 20.6984 11.7383 20.8078 11.3711C20.9172 11 21.0793 10.6777 21.2941 10.4043C21.509 10.1309 21.7766 9.91992 22.0969 9.77148C22.4172 9.61914 22.7883 9.54297 23.2102 9.54297C23.507 9.54297 23.7805 9.58594 24.0305 9.67188C24.2805 9.75391 24.4973 9.88477 24.6809 10.0645C24.8645 10.2441 25.007 10.4746 25.1086 10.7559C25.2102 11.0371 25.2609 11.377 25.2609 11.7754V16H24.177V11.8281C24.177 11.4961 24.1203 11.2305 24.007 11.0312C23.8977 10.832 23.7414 10.6875 23.5383 10.5977C23.3352 10.5039 23.0969 10.457 22.8234 10.457C22.5031 10.457 22.2355 10.5137 22.0207 10.627C21.8059 10.7402 21.634 10.8965 21.5051 11.0957C21.3762 11.2949 21.2824 11.5234 21.2238 11.7812C21.1691 12.0352 21.1418 12.3047 21.1418 12.5898ZM25.2492 11.9922L24.5227 12.2148C24.5266 11.8672 24.5832 11.5332 24.6926 11.2129C24.8059 10.8926 24.968 10.6074 25.1789 10.3574C25.3938 10.1074 25.6574 9.91016 25.9699 9.76562C26.2824 9.61719 26.6398 9.54297 27.0422 9.54297C27.382 9.54297 27.6828 9.58789 27.9445 9.67773C28.2102 9.76758 28.4328 9.90625 28.6125 10.0938C28.7961 10.2773 28.9348 10.5137 29.0285 10.8027C29.1223 11.0918 29.1691 11.4355 29.1691 11.834V16H28.0793V11.8223C28.0793 11.4668 28.0227 11.1914 27.9094 10.9961C27.8 10.7969 27.6438 10.6582 27.4406 10.5801C27.2414 10.498 27.0031 10.457 26.7258 10.457C26.4875 10.457 26.2766 10.498 26.093 10.5801C25.9094 10.6621 25.7551 10.7754 25.6301 10.9199C25.5051 11.0605 25.4094 11.2227 25.343 11.4062C25.2805 11.5898 25.2492 11.7852 25.2492 11.9922ZM32.2938 10.8789V18.4375H31.2039V9.66016H32.2L32.2938 10.8789ZM36.5652 12.7773V12.9004C36.5652 13.3613 36.5105 13.7891 36.4012 14.1836C36.2918 14.5742 36.1316 14.9141 35.9207 15.2031C35.7137 15.4922 35.4578 15.7168 35.1531 15.877C34.8484 16.0371 34.4988 16.1172 34.1043 16.1172C33.702 16.1172 33.3465 16.0508 33.0379 15.918C32.7293 15.7852 32.4676 15.5918 32.2527 15.3379C32.0379 15.084 31.866 14.7793 31.7371 14.4238C31.6121 14.0684 31.5262 13.668 31.4793 13.2227V12.5664C31.5262 12.0977 31.6141 11.6777 31.743 11.3066C31.8719 10.9355 32.0418 10.6191 32.2527 10.3574C32.4676 10.0918 32.7273 9.89062 33.032 9.75391C33.3367 9.61328 33.6883 9.54297 34.0867 9.54297C34.4852 9.54297 34.8387 9.62109 35.1473 9.77734C35.4559 9.92969 35.7156 10.1484 35.9266 10.4336C36.1375 10.7188 36.2957 11.0605 36.4012 11.459C36.5105 11.8535 36.5652 12.293 36.5652 12.7773ZM35.4754 12.9004V12.7773C35.4754 12.4609 35.4422 12.1641 35.3758 11.8867C35.3094 11.6055 35.2059 11.3594 35.0652 11.1484C34.9285 10.9336 34.7527 10.7656 34.5379 10.6445C34.323 10.5195 34.0672 10.457 33.7703 10.457C33.4969 10.457 33.2586 10.5039 33.0555 10.5977C32.8563 10.6914 32.6863 10.8184 32.5457 10.9785C32.4051 11.1348 32.2898 11.3145 32.2 11.5176C32.1141 11.7168 32.0496 11.9238 32.0066 12.1387V13.6562C32.0848 13.9297 32.1941 14.1875 32.3348 14.4297C32.4754 14.668 32.6629 14.8613 32.8973 15.0098C33.1316 15.1543 33.4266 15.2266 33.782 15.2266C34.075 15.2266 34.327 15.166 34.5379 15.0449C34.7527 14.9199 34.9285 14.75 35.0652 14.5352C35.2059 14.3203 35.3094 14.0742 35.3758 13.7969C35.4422 13.5156 35.4754 13.2168 35.4754 12.9004ZM39.5258 7V16H38.4359V7H39.5258ZM44.2969 16.1172C43.8555 16.1172 43.4551 16.043 43.0957 15.8945C42.7402 15.7422 42.4336 15.5293 42.1758 15.2559C41.9219 14.9824 41.7266 14.6582 41.5898 14.2832C41.4531 13.9082 41.3848 13.498 41.3848 13.0527V12.8066C41.3848 12.291 41.4609 11.832 41.6133 11.4297C41.7656 11.0234 41.9727 10.6797 42.2344 10.3984C42.4961 10.1172 42.793 9.9043 43.125 9.75977C43.457 9.61523 43.8008 9.54297 44.1562 9.54297C44.6094 9.54297 45 9.62109 45.3281 9.77734C45.6602 9.93359 45.9316 10.1523 46.1426 10.4336C46.3535 10.7109 46.5098 11.0391 46.6113 11.418C46.7129 11.793 46.7637 12.2031 46.7637 12.6484V13.1348H42.0293V12.25H45.6797V12.168C45.6641 11.8867 45.6055 11.6133 45.5039 11.3477C45.4062 11.082 45.25 10.8633 45.0352 10.6914C44.8203 10.5195 44.5273 10.4336 44.1562 10.4336C43.9102 10.4336 43.6836 10.4863 43.4766 10.5918C43.2695 10.6934 43.0918 10.8457 42.9434 11.0488C42.7949 11.252 42.6797 11.5 42.5977 11.793C42.5156 12.0859 42.4746 12.4238 42.4746 12.8066V13.0527C42.4746 13.3535 42.5156 13.6367 42.5977 13.9023C42.6836 14.1641 42.8066 14.3945 42.9668 14.5938C43.1309 14.793 43.3281 14.9492 43.5586 15.0625C43.793 15.1758 44.0586 15.2324 44.3555 15.2324C44.7383 15.2324 45.0625 15.1543 45.3281 14.998C45.5938 14.8418 45.8262 14.6328 46.0254 14.3711L46.6816 14.8926C46.5449 15.0996 46.3711 15.2969 46.1602 15.4844C45.9492 15.6719 45.6895 15.8242 45.3809 15.9414C45.0762 16.0586 44.7148 16.1172 44.2969 16.1172ZM51.0836 9.66016V10.4922H47.6559V9.66016H51.0836ZM48.816 8.11914H49.9V14.4297C49.9 14.6445 49.9332 14.8066 49.9996 14.916C50.066 15.0254 50.152 15.0977 50.2574 15.1328C50.3629 15.168 50.4762 15.1855 50.5973 15.1855C50.6871 15.1855 50.7809 15.1777 50.8785 15.1621C50.9801 15.1426 51.0563 15.127 51.107 15.1152L51.1129 16C51.027 16.0273 50.9137 16.0527 50.773 16.0762C50.6363 16.1035 50.4703 16.1172 50.275 16.1172C50.0094 16.1172 49.7652 16.0645 49.5426 15.959C49.3199 15.8535 49.1422 15.6777 49.0094 15.4316C48.8805 15.1816 48.816 14.8457 48.816 14.4238V8.11914ZM55.3859 16.1172C54.9445 16.1172 54.5441 16.043 54.1848 15.8945C53.8293 15.7422 53.5227 15.5293 53.2648 15.2559C53.0109 14.9824 52.8156 14.6582 52.6789 14.2832C52.5422 13.9082 52.4738 13.498 52.4738 13.0527V12.8066C52.4738 12.291 52.55 11.832 52.7023 11.4297C52.8547 11.0234 53.0617 10.6797 53.3234 10.3984C53.5852 10.1172 53.882 9.9043 54.2141 9.75977C54.5461 9.61523 54.8898 9.54297 55.2453 9.54297C55.6984 9.54297 56.0891 9.62109 56.4172 9.77734C56.7492 9.93359 57.0207 10.1523 57.2316 10.4336C57.4426 10.7109 57.5988 11.0391 57.7004 11.418C57.802 11.793 57.8527 12.2031 57.8527 12.6484V13.1348H53.1184V12.25H56.7687V12.168C56.7531 11.8867 56.6945 11.6133 56.593 11.3477C56.4953 11.082 56.3391 10.8633 56.1242 10.6914C55.9094 10.5195 55.6164 10.4336 55.2453 10.4336C54.9992 10.4336 54.7727 10.4863 54.5656 10.5918C54.3586 10.6934 54.1809 10.8457 54.0324 11.0488C53.884 11.252 53.7687 11.5 53.6867 11.793C53.6047 12.0859 53.5637 12.4238 53.5637 12.8066V13.0527C53.5637 13.3535 53.6047 13.6367 53.6867 13.9023C53.7727 14.1641 53.8957 14.3945 54.0559 14.5938C54.2199 14.793 54.4172 14.9492 54.6477 15.0625C54.882 15.1758 55.1477 15.2324 55.4445 15.2324C55.8273 15.2324 56.1516 15.1543 56.4172 14.998C56.6828 14.8418 56.9152 14.6328 57.1145 14.3711L57.7707 14.8926C57.634 15.0996 57.4602 15.2969 57.2492 15.4844C57.0383 15.6719 56.7785 15.8242 56.4699 15.9414C56.1652 16.0586 55.8039 16.1172 55.3859 16.1172ZM63.5145 14.7695V7H64.6043V16H63.6082L63.5145 14.7695ZM59.2488 12.9004V12.7773C59.2488 12.293 59.3074 11.8535 59.4246 11.459C59.5457 11.0605 59.7156 10.7188 59.9344 10.4336C60.157 10.1484 60.4207 9.92969 60.7254 9.77734C61.034 9.62109 61.3777 9.54297 61.7566 9.54297C62.1551 9.54297 62.5027 9.61328 62.7996 9.75391C63.1004 9.89062 63.3543 10.0918 63.5613 10.3574C63.7723 10.6191 63.9383 10.9355 64.0594 11.3066C64.1805 11.6777 64.2645 12.0977 64.3113 12.5664V13.1055C64.2684 13.5703 64.1844 13.9883 64.0594 14.3594C63.9383 14.7305 63.7723 15.0469 63.5613 15.3086C63.3543 15.5703 63.1004 15.7715 62.7996 15.9121C62.4988 16.0488 62.1473 16.1172 61.7449 16.1172C61.3738 16.1172 61.034 16.0371 60.7254 15.877C60.4207 15.7168 60.157 15.4922 59.9344 15.2031C59.7156 14.9141 59.5457 14.5742 59.4246 14.1836C59.3074 13.7891 59.2488 13.3613 59.2488 12.9004ZM60.3387 12.7773V12.9004C60.3387 13.2168 60.3699 13.5137 60.4324 13.791C60.4988 14.0684 60.6004 14.3125 60.7371 14.5234C60.8738 14.7344 61.0477 14.9004 61.2586 15.0215C61.4695 15.1387 61.7215 15.1973 62.0145 15.1973C62.3738 15.1973 62.6688 15.1211 62.8992 14.9688C63.1336 14.8164 63.3211 14.6152 63.4617 14.3652C63.6023 14.1152 63.7117 13.8438 63.7898 13.5508V12.1387C63.743 11.9238 63.6746 11.7168 63.5848 11.5176C63.4988 11.3145 63.3855 11.1348 63.2449 10.9785C63.1082 10.8184 62.9383 10.6914 62.7352 10.5977C62.5359 10.5039 62.2996 10.457 62.0262 10.457C61.7293 10.457 61.4734 10.5195 61.2586 10.6445C61.0477 10.7656 60.8738 10.9336 60.7371 11.1484C60.6004 11.3594 60.4988 11.6055 60.4324 11.8867C60.3699 12.1641 60.3387 12.4609 60.3387 12.7773Z" fill="#608F45"/>
<mask id="mask0_152_2283" style="mask-type:alpha" maskUnits="userSpaceOnUse" x="70" y="5" width="14" height="14">
<rect x="70" y="5" width="14" height="14" fill="#D9D9D9"/>
</mask>
<g mask="url(#mask0_152_2283)">
<path d="M75.5706 15.5009L72.2456 12.1759L73.0769 11.3447L75.5706 13.8384L80.9227 8.48633L81.7539 9.31758L75.5706 15.5009Z" fill="#608F45"/>
</g>
</svg>
