<svg width="18" height="18" viewBox="0 0 18 18" fill="none" xmlns="http://www.w3.org/2000/svg">
<path d="M1 15.5V14H17.5V15.5H1ZM3.25 13.25C2.8375 13.25 2.48438 13.1031 2.19062 12.8094C1.89687 12.5156 1.75 12.1625 1.75 11.75V3.5C1.75 3.0875 1.89687 2.73438 2.19062 2.44063C2.48438 2.14688 2.8375 2 3.25 2H15.25C15.6625 2 16.0156 2.14688 16.3094 2.44063C16.6031 2.73438 16.75 3.0875 16.75 3.5V11.75C16.75 12.1625 16.6031 12.5156 16.3094 12.8094C16.0156 13.1031 15.6625 13.25 15.25 13.25H3.25ZM3.25 11.75H15.25V3.5H3.25V11.75Z" fill="#1C1B1F"/>
</svg>
