<svg width="18" height="18" viewBox="0 0 18 18" fill="none" xmlns="http://www.w3.org/2000/svg">
<path d="M12.625 13.35V11.25H11.875V13.65L13.4875 15.2625L14.0125 14.7375L12.625 13.35ZM7.75 2.25L3.30625 4.81875L7.75 7.3875L12.1938 4.81875L7.75 2.25ZM1 11.2313V5.26875C1 4.99375 1.06563 4.74375 1.19688 4.51875C1.32812 4.29375 1.5125 4.1125 1.75 3.975L7 0.95625C7.125 0.89375 7.24688 0.84375 7.36563 0.80625C7.48438 0.76875 7.6125 0.75 7.75 0.75C7.8875 0.75 8.01875 0.76875 8.14375 0.80625C8.26875 0.84375 8.3875 0.89375 8.5 0.95625L13.75 3.975C13.9875 4.1125 14.1719 4.29375 14.3031 4.51875C14.4344 4.74375 14.5 4.99375 14.5 5.26875V8.25H13V6.075L7.73125 9.1125L2.5 6.075V11.2125L7 13.8188V15.5438L1.75 12.525C1.5125 12.3875 1.32812 12.2063 1.19688 11.9813C1.06563 11.7563 1 11.5063 1 11.2313ZM12.25 17.25C11.2125 17.25 10.3281 16.8844 9.59688 16.1531C8.86563 15.4219 8.5 14.5375 8.5 13.5C8.5 12.4625 8.86563 11.5781 9.59688 10.8469C10.3281 10.1156 11.2125 9.75 12.25 9.75C13.2875 9.75 14.1719 10.1156 14.9031 10.8469C15.6344 11.5781 16 12.4625 16 13.5C16 14.5375 15.6344 15.4219 14.9031 16.1531C14.1719 16.8844 13.2875 17.25 12.25 17.25Z" fill="#1C1B1F"/>
</svg>
