<svg width="18" height="18" viewBox="0 0 18 18" fill="none" xmlns="http://www.w3.org/2000/svg">
<path d="M2 15.75V12H5L8 9V6.6C7.55 6.4375 7.1875 6.16563 6.9125 5.78438C6.6375 5.40313 6.5 4.975 6.5 4.5C6.5 3.875 6.71875 3.34375 7.15625 2.90625C7.59375 2.46875 8.125 2.25 8.75 2.25C9.375 2.25 9.90625 2.46875 10.3438 2.90625C10.7812 3.34375 11 3.875 11 4.5C11 4.975 10.8625 5.40313 10.5875 5.78438C10.3125 6.16563 9.95 6.4375 9.5 6.6V9L12.5 12H15.5V15.75H11.75V13.4625L8.75 10.4625L5.75 13.4625V15.75H2Z" fill="#1C1B1F"/>
</svg>
