<svg width="89" height="24" viewBox="0 0 89 24" fill="none" xmlns="http://www.w3.org/2000/svg">
<rect x="0.5" y="0.5" width="88" height="23" rx="4.5" fill="#ECEEF1"/>
<rect x="0.5" y="0.5" width="88" height="23" rx="4.5" stroke="#D9DEE3"/>
<path d="M17.0308 11.875V12.3047C17.0308 12.8955 16.9538 13.4255 16.7998 13.8945C16.6458 14.3636 16.4256 14.7629 16.1392 15.0923C15.8563 15.4217 15.5161 15.6742 15.1187 15.8496C14.7212 16.0215 14.2808 16.1074 13.7974 16.1074C13.3175 16.1074 12.8789 16.0215 12.4814 15.8496C12.0876 15.6742 11.7456 15.4217 11.4556 15.0923C11.1655 14.7629 10.9399 14.3636 10.7788 13.8945C10.6213 13.4255 10.5425 12.8955 10.5425 12.3047V11.875C10.5425 11.2842 10.6213 10.756 10.7788 10.2905C10.9364 9.82145 11.1584 9.4222 11.4448 9.09277C11.7349 8.75977 12.0768 8.50732 12.4707 8.33545C12.8682 8.15999 13.3068 8.07227 13.7866 8.07227C14.27 8.07227 14.7104 8.15999 15.1079 8.33545C15.5054 8.50732 15.8473 8.75977 16.1338 9.09277C16.4202 9.4222 16.6405 9.82145 16.7944 10.2905C16.952 10.756 17.0308 11.2842 17.0308 11.875ZM15.6826 12.3047V11.8643C15.6826 11.4274 15.6396 11.0425 15.5537 10.7095C15.4714 10.3729 15.3478 10.0918 15.1831 9.86621C15.022 9.63704 14.8232 9.46517 14.5869 9.35059C14.3506 9.23242 14.0838 9.17334 13.7866 9.17334C13.4894 9.17334 13.2244 9.23242 12.9917 9.35059C12.759 9.46517 12.5602 9.63704 12.3955 9.86621C12.2344 10.0918 12.1108 10.3729 12.0249 10.7095C11.939 11.0425 11.896 11.4274 11.896 11.8643V12.3047C11.896 12.7415 11.939 13.1283 12.0249 13.4648C12.1108 13.8014 12.2362 14.0861 12.4009 14.3188C12.5692 14.548 12.7697 14.7217 13.0024 14.8398C13.2352 14.9544 13.5002 15.0117 13.7974 15.0117C14.0981 15.0117 14.3649 14.9544 14.5977 14.8398C14.8304 14.7217 15.0273 14.548 15.1885 14.3188C15.3496 14.0861 15.4714 13.8014 15.5537 13.4648C15.6396 13.1283 15.6826 12.7415 15.6826 12.3047ZM20.0337 11.4292V16H18.7393V10.1885H19.9585L20.0337 11.4292ZM19.8027 12.8794L19.3838 12.874C19.3874 12.4622 19.4447 12.0845 19.5557 11.7407C19.6702 11.397 19.8278 11.1016 20.0283 10.8545C20.2324 10.6074 20.4759 10.4176 20.7588 10.2852C21.0417 10.1491 21.3568 10.0811 21.7041 10.0811C21.9834 10.0811 22.2358 10.1204 22.4614 10.1992C22.6906 10.2744 22.8857 10.3979 23.0469 10.5698C23.2116 10.7417 23.3369 10.9655 23.4229 11.2412C23.5088 11.5133 23.5518 11.8481 23.5518 12.2456V16H22.252V12.2402C22.252 11.9609 22.2108 11.7407 22.1284 11.5796C22.0496 11.4149 21.9333 11.2985 21.7793 11.2305C21.6289 11.1589 21.4409 11.123 21.2153 11.123C20.9933 11.123 20.7946 11.1696 20.6191 11.2627C20.4437 11.3558 20.2951 11.4829 20.1733 11.644C20.0552 11.8052 19.9639 11.9914 19.8994 12.2026C19.835 12.4139 19.8027 12.6395 19.8027 12.8794ZM29.0952 10.1885H30.2715V15.8389C30.2715 16.3617 30.1605 16.8057 29.9385 17.1709C29.7165 17.5361 29.4067 17.8136 29.0093 18.0034C28.6118 18.1968 28.1517 18.2935 27.6289 18.2935C27.4069 18.2935 27.1598 18.2612 26.8877 18.1968C26.6191 18.1323 26.3577 18.0285 26.1035 17.8853C25.8529 17.7456 25.6434 17.5612 25.4751 17.332L26.082 16.5693C26.2897 16.8164 26.5189 16.9972 26.7695 17.1118C27.0202 17.2264 27.2834 17.2837 27.5591 17.2837C27.8563 17.2837 28.1087 17.2282 28.3164 17.1172C28.5277 17.0098 28.6906 16.8504 28.8052 16.6392C28.9198 16.4279 28.9771 16.1701 28.9771 15.8657V11.5044L29.0952 10.1885ZM25.1475 13.1587V13.0459C25.1475 12.6055 25.2012 12.2044 25.3086 11.8428C25.416 11.4775 25.57 11.1642 25.7705 10.9028C25.971 10.6379 26.2145 10.4355 26.501 10.2959C26.7874 10.1527 27.1115 10.0811 27.4731 10.0811C27.8491 10.0811 28.1696 10.1491 28.4346 10.2852C28.7031 10.4212 28.9269 10.6164 29.106 10.8706C29.285 11.1213 29.4246 11.422 29.5249 11.7729C29.6287 12.1203 29.7057 12.507 29.7559 12.9331V13.293C29.7093 13.7083 29.6305 14.0879 29.5195 14.4316C29.4085 14.7754 29.2617 15.0726 29.0791 15.3232C28.8965 15.5739 28.6709 15.7673 28.4023 15.9033C28.1374 16.0394 27.8241 16.1074 27.4624 16.1074C27.1079 16.1074 26.7874 16.034 26.501 15.8872C26.2181 15.7404 25.9746 15.5345 25.7705 15.2695C25.57 15.0046 25.416 14.693 25.3086 14.335C25.2012 13.9733 25.1475 13.5812 25.1475 13.1587ZM26.4419 13.0459V13.1587C26.4419 13.4237 26.467 13.6707 26.5171 13.8999C26.5708 14.1291 26.6514 14.3314 26.7588 14.5068C26.8698 14.6787 27.0094 14.8148 27.1777 14.915C27.3496 15.0117 27.5519 15.0601 27.7847 15.0601C28.089 15.0601 28.3379 14.9956 28.5312 14.8667C28.7282 14.7378 28.8786 14.5641 28.9824 14.3457C29.0898 14.1237 29.165 13.8766 29.208 13.6045V12.6323C29.1865 12.4211 29.1418 12.2241 29.0737 12.0415C29.0093 11.8589 28.9215 11.6995 28.8105 11.5635C28.6995 11.4238 28.5599 11.3164 28.3916 11.2412C28.2233 11.1624 28.0246 11.123 27.7954 11.123C27.5627 11.123 27.3604 11.1732 27.1885 11.2734C27.0166 11.3737 26.8752 11.5116 26.7642 11.687C26.6567 11.8625 26.5762 12.0666 26.5225 12.2993C26.4688 12.5321 26.4419 12.7809 26.4419 13.0459ZM31.8672 13.1587V13.0352C31.8672 12.6162 31.9281 12.2277 32.0498 11.8696C32.1715 11.508 32.347 11.1947 32.5762 10.9297C32.8089 10.6611 33.0918 10.4535 33.4248 10.3066C33.7614 10.1562 34.141 10.0811 34.5635 10.0811C34.9896 10.0811 35.3691 10.1562 35.7021 10.3066C36.0387 10.4535 36.3234 10.6611 36.5562 10.9297C36.7889 11.1947 36.9661 11.508 37.0879 11.8696C37.2096 12.2277 37.2705 12.6162 37.2705 13.0352V13.1587C37.2705 13.5776 37.2096 13.9661 37.0879 14.3242C36.9661 14.6823 36.7889 14.9956 36.5562 15.2642C36.3234 15.5291 36.0405 15.7368 35.7075 15.8872C35.3745 16.034 34.9967 16.1074 34.5742 16.1074C34.1481 16.1074 33.7668 16.034 33.4302 15.8872C33.0972 15.7368 32.8143 15.5291 32.5815 15.2642C32.3488 14.9956 32.1715 14.6823 32.0498 14.3242C31.9281 13.9661 31.8672 13.5776 31.8672 13.1587ZM33.1616 13.0352V13.1587C33.1616 13.4201 33.1885 13.6672 33.2422 13.8999C33.2959 14.1326 33.38 14.3368 33.4946 14.5122C33.6092 14.6877 33.756 14.8255 33.9351 14.9258C34.1141 15.026 34.3271 15.0762 34.5742 15.0762C34.8141 15.0762 35.0218 15.026 35.1973 14.9258C35.3763 14.8255 35.5231 14.6877 35.6377 14.5122C35.7523 14.3368 35.8364 14.1326 35.8901 13.8999C35.9474 13.6672 35.9761 13.4201 35.9761 13.1587V13.0352C35.9761 12.7773 35.9474 12.5339 35.8901 12.3047C35.8364 12.0719 35.7505 11.866 35.6323 11.687C35.5177 11.508 35.3709 11.3683 35.1919 11.2681C35.0164 11.1642 34.807 11.1123 34.5635 11.1123C34.32 11.1123 34.1087 11.1642 33.9297 11.2681C33.7542 11.3683 33.6092 11.508 33.4946 11.687C33.38 11.866 33.2959 12.0719 33.2422 12.3047C33.1885 12.5339 33.1616 12.7773 33.1616 13.0352ZM40.2412 10.1885V16H38.9414V10.1885H40.2412ZM38.8555 8.66309C38.8555 8.46615 38.9199 8.30322 39.0488 8.17432C39.1813 8.04183 39.3639 7.97559 39.5967 7.97559C39.8258 7.97559 40.0067 8.04183 40.1392 8.17432C40.2716 8.30322 40.3379 8.46615 40.3379 8.66309C40.3379 8.85645 40.2716 9.01758 40.1392 9.14648C40.0067 9.27539 39.8258 9.33984 39.5967 9.33984C39.3639 9.33984 39.1813 9.27539 39.0488 9.14648C38.9199 9.01758 38.8555 8.85645 38.8555 8.66309ZM43.4429 11.4292V16H42.1484V10.1885H43.3677L43.4429 11.4292ZM43.2119 12.8794L42.793 12.874C42.7965 12.4622 42.8538 12.0845 42.9648 11.7407C43.0794 11.397 43.237 11.1016 43.4375 10.8545C43.6416 10.6074 43.8851 10.4176 44.168 10.2852C44.4508 10.1491 44.766 10.0811 45.1133 10.0811C45.3926 10.0811 45.645 10.1204 45.8706 10.1992C46.0998 10.2744 46.2949 10.3979 46.4561 10.5698C46.6208 10.7417 46.7461 10.9655 46.832 11.2412C46.918 11.5133 46.9609 11.8481 46.9609 12.2456V16H45.6611V12.2402C45.6611 11.9609 45.62 11.7407 45.5376 11.5796C45.4588 11.4149 45.3424 11.2985 45.1885 11.2305C45.0381 11.1589 44.8501 11.123 44.6245 11.123C44.4025 11.123 44.2038 11.1696 44.0283 11.2627C43.8529 11.3558 43.7043 11.4829 43.5825 11.644C43.4644 11.8052 43.373 11.9914 43.3086 12.2026C43.2441 12.4139 43.2119 12.6395 43.2119 12.8794ZM52.5044 10.1885H53.6807V15.8389C53.6807 16.3617 53.5697 16.8057 53.3477 17.1709C53.1257 17.5361 52.8159 17.8136 52.4185 18.0034C52.021 18.1968 51.5609 18.2935 51.0381 18.2935C50.8161 18.2935 50.569 18.2612 50.2969 18.1968C50.0283 18.1323 49.7669 18.0285 49.5127 17.8853C49.262 17.7456 49.0526 17.5612 48.8843 17.332L49.4912 16.5693C49.6989 16.8164 49.9281 16.9972 50.1787 17.1118C50.4294 17.2264 50.6925 17.2837 50.9683 17.2837C51.2655 17.2837 51.5179 17.2282 51.7256 17.1172C51.9368 17.0098 52.0998 16.8504 52.2144 16.6392C52.3289 16.4279 52.3862 16.1701 52.3862 15.8657V11.5044L52.5044 10.1885ZM48.5566 13.1587V13.0459C48.5566 12.6055 48.6104 12.2044 48.7178 11.8428C48.8252 11.4775 48.9792 11.1642 49.1797 10.9028C49.3802 10.6379 49.6237 10.4355 49.9102 10.2959C50.1966 10.1527 50.5207 10.0811 50.8823 10.0811C51.2583 10.0811 51.5788 10.1491 51.8438 10.2852C52.1123 10.4212 52.3361 10.6164 52.5151 10.8706C52.6942 11.1213 52.8338 11.422 52.9341 11.7729C53.0379 12.1203 53.1149 12.507 53.165 12.9331V13.293C53.1185 13.7083 53.0397 14.0879 52.9287 14.4316C52.8177 14.7754 52.6709 15.0726 52.4883 15.3232C52.3057 15.5739 52.0801 15.7673 51.8115 15.9033C51.5465 16.0394 51.2332 16.1074 50.8716 16.1074C50.5171 16.1074 50.1966 16.034 49.9102 15.8872C49.6273 15.7404 49.3838 15.5345 49.1797 15.2695C48.9792 15.0046 48.8252 14.693 48.7178 14.335C48.6104 13.9733 48.5566 13.5812 48.5566 13.1587ZM49.8511 13.0459V13.1587C49.8511 13.4237 49.8761 13.6707 49.9263 13.8999C49.98 14.1291 50.0605 14.3314 50.168 14.5068C50.279 14.6787 50.4186 14.8148 50.5869 14.915C50.7588 15.0117 50.9611 15.0601 51.1938 15.0601C51.4982 15.0601 51.7471 14.9956 51.9404 14.8667C52.1374 14.7378 52.2878 14.5641 52.3916 14.3457C52.499 14.1237 52.5742 13.8766 52.6172 13.6045V12.6323C52.5957 12.4211 52.5509 12.2241 52.4829 12.0415C52.4185 11.8589 52.3307 11.6995 52.2197 11.5635C52.1087 11.4238 51.9691 11.3164 51.8008 11.2412C51.6325 11.1624 51.4338 11.123 51.2046 11.123C50.9718 11.123 50.7695 11.1732 50.5977 11.2734C50.4258 11.3737 50.2843 11.5116 50.1733 11.687C50.0659 11.8625 49.9854 12.0666 49.9316 12.2993C49.8779 12.5321 49.8511 12.7809 49.8511 13.0459Z" fill="#5A6170"/>
<mask id="mask0_152_2288" style="mask-type:alpha" maskUnits="userSpaceOnUse" x="65" y="5" width="14" height="14">
<rect x="65" y="5" width="14" height="14" fill="#5A6170"/>
</mask>
<g mask="url(#mask0_152_2288)">
<path d="M71.9998 17.8332C71.1929 17.8332 70.4346 17.68 69.7248 17.3738C69.0151 17.0675 68.3978 16.6519 67.8728 16.1269C67.3478 15.6019 66.9321 14.9846 66.6259 14.2748C66.3196 13.5651 66.1665 12.8068 66.1665 11.9998C66.1665 11.1929 66.3196 10.4346 66.6259 9.72484C66.9321 9.01512 67.3478 8.39775 67.8728 7.87275C68.3978 7.34775 69.0151 6.93213 69.7248 6.62588C70.4346 6.31963 71.1929 6.1665 71.9998 6.1665C72.8068 6.1665 73.5651 6.31963 74.2748 6.62588C74.9846 6.93213 75.6019 7.34775 76.1269 7.87275C76.6519 8.39775 77.0675 9.01512 77.3738 9.72484C77.68 10.4346 77.8332 11.1929 77.8332 11.9998C77.8332 12.2623 77.8186 12.52 77.7894 12.7728C77.7603 13.0255 77.7116 13.2734 77.6436 13.5165C77.5075 13.3609 77.3495 13.2297 77.1696 13.1228C76.9898 13.0158 76.7929 12.9429 76.579 12.904C76.6082 12.7582 76.63 12.6099 76.6446 12.4592C76.6592 12.3085 76.6665 12.1554 76.6665 11.9998C76.6665 10.6971 76.2144 9.59359 75.3103 8.68942C74.4061 7.78525 73.3026 7.33317 71.9998 7.33317C70.6971 7.33317 69.5936 7.78525 68.6894 8.68942C67.7853 9.59359 67.3332 10.6971 67.3332 11.9998C67.3332 13.3026 67.7853 14.4061 68.6894 15.3103C69.5936 16.2144 70.6971 16.6665 71.9998 16.6665C72.4957 16.6665 72.9696 16.5936 73.4217 16.4478C73.8738 16.3019 74.2894 16.0978 74.6686 15.8353C74.7853 16.0005 74.9287 16.1464 75.0988 16.2728C75.2689 16.3991 75.4512 16.4964 75.6457 16.5644C75.1498 16.963 74.5932 17.2741 73.9759 17.4978C73.3585 17.7214 72.6998 17.8332 71.9998 17.8332ZM76.229 15.4998C76.0248 15.4998 75.8523 15.4294 75.7113 15.2884C75.5703 15.1474 75.4998 14.9748 75.4998 14.7707C75.4998 14.5665 75.5703 14.3939 75.7113 14.253C75.8523 14.112 76.0248 14.0415 76.229 14.0415C76.4332 14.0415 76.6057 14.112 76.7467 14.253C76.8877 14.3939 76.9582 14.5665 76.9582 14.7707C76.9582 14.9748 76.8877 15.1474 76.7467 15.2884C76.6057 15.4294 76.4332 15.4998 76.229 15.4998ZM73.9248 14.7415L71.4165 12.2332V9.08317H72.5832V11.7665L74.7415 13.9248L73.9248 14.7415Z" fill="#5A6170"/>
</g>
</svg>
