<svg width="80" height="101" viewBox="0 0 80 101" fill="none" xmlns="http://www.w3.org/2000/svg">
<g filter="url(#filter0_i_16_363)">
<rect width="80" height="79.848" rx="25.2684" fill="white" fill-opacity="0.05"/>
</g>
<rect x="0.505367" y="0.505367" width="78.9893" height="78.8373" rx="24.763" stroke="url(#paint0_linear_16_363)" stroke-opacity="0.2" stroke-width="1.01073"/>
<g filter="url(#filter1_f_16_363)">
<path d="M40.7551 64.687C49.3618 64.6872 56.3752 71.4888 56.6975 80.0005H24.8118C25.1341 71.4887 32.1483 64.687 40.7551 64.687Z" fill="#7F76FF" fill-opacity="0.31"/>
</g>
<g filter="url(#filter2_d_16_363)">
<path d="M20.2529 51.0422C20.2529 46.0183 24.3334 41.9456 29.3669 41.9456H34.8352C36.1113 41.9456 36.7493 41.9456 37.2367 42.1935C37.6654 42.4115 38.014 42.7594 38.2324 43.1873C38.4808 43.6738 38.4808 44.3106 38.4808 45.5843V51.0422C38.4808 56.0661 34.4003 60.1388 29.3669 60.1388C24.3334 60.1388 20.2529 56.0661 20.2529 51.0422Z" fill="#1968EC"/>
<path d="M42.5314 28.8061C42.5314 23.7822 46.6119 19.7095 51.6453 19.7095C56.6788 19.7095 60.7593 23.7822 60.7593 28.8061C60.7593 33.83 56.6788 37.9027 51.6453 37.9027H45.1354C44.8331 37.9027 44.6819 37.9027 44.5548 37.8884C43.4984 37.7696 42.6648 36.9375 42.5457 35.8832C42.5314 35.7562 42.5314 35.6054 42.5314 35.3037V28.8061Z" fill="#1968EC"/>
<path d="M20.2529 28.8061C20.2529 23.7822 24.3334 19.7095 29.3669 19.7095C34.4003 19.7095 38.4808 23.7822 38.4808 28.8061V34.8705C38.4808 35.5754 38.4808 35.9279 38.4031 36.2171C38.1925 37.0019 37.5783 37.6149 36.792 37.8252C36.5023 37.9027 36.1491 37.9027 35.4428 37.9027H29.3669C24.3334 37.9027 20.2529 33.83 20.2529 28.8061Z" fill="url(#paint1_linear_16_363)"/>
<path d="M42.5314 44.9778C42.5314 44.2729 42.5314 43.9204 42.609 43.6312C42.8197 42.8464 43.4339 42.2334 44.2202 42.0231C44.5099 41.9456 44.8631 41.9456 45.5694 41.9456H51.6453C56.6788 41.9456 60.7593 46.0183 60.7593 51.0422C60.7593 56.0661 56.6788 60.1388 51.6453 60.1388C46.6119 60.1388 42.5314 56.0661 42.5314 51.0422V44.9778Z" fill="url(#paint2_linear_16_363)"/>
</g>
<defs>
<filter id="filter0_i_16_363" x="0" y="0" width="80" height="82.375" filterUnits="userSpaceOnUse" color-interpolation-filters="sRGB">
<feFlood flood-opacity="0" result="BackgroundImageFix"/>
<feBlend mode="normal" in="SourceGraphic" in2="BackgroundImageFix" result="shape"/>
<feColorMatrix in="SourceAlpha" type="matrix" values="0 0 0 0 0 0 0 0 0 0 0 0 0 0 0 0 0 0 127 0" result="hardAlpha"/>
<feOffset dy="2.52684"/>
<feGaussianBlur stdDeviation="3.79025"/>
<feComposite in2="hardAlpha" operator="arithmetic" k2="-1" k3="1"/>
<feColorMatrix type="matrix" values="0 0 0 0 1 0 0 0 0 1 0 0 0 0 1 0 0 0 0.15 0"/>
<feBlend mode="normal" in2="shape" result="effect1_innerShadow_16_363"/>
</filter>
<filter id="filter1_f_16_363" x="4.59709" y="44.4723" width="72.3151" height="55.7428" filterUnits="userSpaceOnUse" color-interpolation-filters="sRGB">
<feFlood flood-opacity="0" result="BackgroundImageFix"/>
<feBlend mode="normal" in="SourceGraphic" in2="BackgroundImageFix" result="shape"/>
<feGaussianBlur stdDeviation="10.1073" result="effect1_foregroundBlur_16_363"/>
</filter>
<filter id="filter2_d_16_363" x="18.2315" y="19.7095" width="44.5493" height="44.4721" filterUnits="userSpaceOnUse" color-interpolation-filters="sRGB">
<feFlood flood-opacity="0" result="BackgroundImageFix"/>
<feColorMatrix in="SourceAlpha" type="matrix" values="0 0 0 0 0 0 0 0 0 0 0 0 0 0 0 0 0 0 127 0" result="hardAlpha"/>
<feOffset dy="2.02147"/>
<feGaussianBlur stdDeviation="1.01073"/>
<feComposite in2="hardAlpha" operator="out"/>
<feColorMatrix type="matrix" values="0 0 0 0 0 0 0 0 0 0 0 0 0 0 0 0 0 0 0.25 0"/>
<feBlend mode="normal" in2="BackgroundImageFix" result="effect1_dropShadow_16_363"/>
<feBlend mode="normal" in="SourceGraphic" in2="effect1_dropShadow_16_363" result="shape"/>
</filter>
<linearGradient id="paint0_linear_16_363" x1="40" y1="0" x2="40" y2="79.848" gradientUnits="userSpaceOnUse">
<stop stop-color="white"/>
<stop offset="1" stop-color="white" stop-opacity="0.3"/>
</linearGradient>
<linearGradient id="paint1_linear_16_363" x1="34.4301" y1="30.3222" x2="54.3791" y2="58.9111" gradientUnits="userSpaceOnUse">
<stop stop-color="#1965E4"/>
<stop offset="0.71875" stop-color="#00D1FF"/>
<stop offset="0.956261" stop-color="#FBFBFB"/>
</linearGradient>
<linearGradient id="paint2_linear_16_363" x1="34.4301" y1="30.3222" x2="54.3791" y2="58.9111" gradientUnits="userSpaceOnUse">
<stop stop-color="#1965E4"/>
<stop offset="0.71875" stop-color="#00D1FF"/>
<stop offset="0.956261" stop-color="#FBFBFB"/>
</linearGradient>
</defs>
</svg>
