<svg width="14" height="14" viewBox="0 0 14 14" fill="none" xmlns="http://www.w3.org/2000/svg">
<mask id="mask0_152_2290" style="mask-type:alpha" maskUnits="userSpaceOnUse" x="0" y="0" width="14" height="14">
<rect width="14" height="14" fill="#5A6170"/>
</mask>
<g mask="url(#mask0_152_2290)">
<path d="M6.99984 12.8332C6.19289 12.8332 5.43456 12.68 4.72484 12.3738C4.01512 12.0675 3.39775 11.6519 2.87275 11.1269C2.34775 10.6019 1.93213 9.98456 1.62588 9.27484C1.31963 8.56512 1.1665 7.80678 1.1665 6.99984C1.1665 6.19289 1.31963 5.43456 1.62588 4.72484C1.93213 4.01512 2.34775 3.39775 2.87275 2.87275C3.39775 2.34775 4.01512 1.93213 4.72484 1.62588C5.43456 1.31963 6.19289 1.1665 6.99984 1.1665C7.80678 1.1665 8.56512 1.31963 9.27484 1.62588C9.98456 1.93213 10.6019 2.34775 11.1269 2.87275C11.6519 3.39775 12.0675 4.01512 12.3738 4.72484C12.68 5.43456 12.8332 6.19289 12.8332 6.99984C12.8332 7.26234 12.8186 7.51998 12.7894 7.77275C12.7603 8.02553 12.7116 8.27345 12.6436 8.5165C12.5075 8.36095 12.3495 8.2297 12.1696 8.12275C11.9898 8.01581 11.7929 7.94289 11.579 7.904C11.6082 7.75817 11.63 7.60991 11.6446 7.45921C11.6592 7.30852 11.6665 7.15539 11.6665 6.99984C11.6665 5.69706 11.2144 4.59359 10.3103 3.68942C9.40609 2.78525 8.30262 2.33317 6.99984 2.33317C5.69706 2.33317 4.59359 2.78525 3.68942 3.68942C2.78525 4.59359 2.33317 5.69706 2.33317 6.99984C2.33317 8.30262 2.78525 9.40609 3.68942 10.3103C4.59359 11.2144 5.69706 11.6665 6.99984 11.6665C7.49567 11.6665 7.96963 11.5936 8.42171 11.4478C8.8738 11.3019 9.28942 11.0978 9.66859 10.8353C9.78525 11.0005 9.92866 11.1464 10.0988 11.2728C10.2689 11.3991 10.4512 11.4964 10.6457 11.5644C10.1498 11.963 9.59324 12.2741 8.97588 12.4978C8.35852 12.7214 7.69984 12.8332 6.99984 12.8332ZM11.229 10.4998C11.0248 10.4998 10.8523 10.4294 10.7113 10.2884C10.5703 10.1474 10.4998 9.97484 10.4998 9.77067C10.4998 9.5665 10.5703 9.39394 10.7113 9.25296C10.8523 9.11199 11.0248 9.0415 11.229 9.0415C11.4332 9.0415 11.6057 9.11199 11.7467 9.25296C11.8877 9.39394 11.9582 9.5665 11.9582 9.77067C11.9582 9.97484 11.8877 10.1474 11.7467 10.2884C11.6057 10.4294 11.4332 10.4998 11.229 10.4998ZM8.92484 9.7415L6.4165 7.23317V4.08317H7.58317V6.7665L9.7415 8.92484L8.92484 9.7415Z" fill="#5A6170"/>
</g>
</svg>
