<svg width="45" height="45" viewBox="0 0 45 45" fill="none" xmlns="http://www.w3.org/2000/svg">
<path d="M8.54994 31.3825C6.0428 33.8146 9.33208 36.4182 4.28564 39.9539C4.28564 39.9539 7.25351 40.9503 9.9428 37.5646C10.8642 36.3968 11.9356 35.9146 11.9356 35.9146C12.2999 36.1289 12.0214 37.3182 10.7249 38.2932C10.7249 38.2932 12.7499 38.3468 14.0142 37.0825C15.2785 35.8182 16.1356 33.9968 16.1356 33.9968C17.0035 35.5182 14.8285 37.4468 14.8285 37.4468C14.8285 37.4468 16.8749 36.9111 19.3071 34.4789C21.1928 32.5932 22.5428 27.8896 19.8321 25.1896C17.1214 22.4896 12.2892 22.9718 9.92137 25.3503C8.88208 26.3896 7.82137 28.0075 7.68208 29.3361C7.68208 29.3361 9.67494 27.1825 10.3821 28.0932C10.3821 28.0932 7.00708 30.1289 6.46064 32.0682C6.47137 32.0682 8.15351 31.0611 8.54994 31.3825Z" fill="url(#paint0_linear_280_1706)"/>
<path d="M6.68578 33.2366C4.06078 34.2866 5.75364 36.4936 4.61792 37.6293C4.61792 37.6293 6.12864 36.8043 6.10721 35.1866C6.08578 33.8686 6.68578 33.2366 6.68578 33.2366Z" fill="url(#paint1_linear_280_1706)"/>
<path d="M7.29614 40.8971C7.97114 40.8221 9.10685 38.8614 10.6497 39.1828C10.6497 39.1828 9.26757 41.1971 7.29614 40.8971Z" fill="url(#paint2_linear_280_1706)"/>
<path opacity="0.5" d="M15.6 36.9646C16.425 36.6539 17.8285 35.9682 19.3071 34.4789C20.9678 32.8182 22.3501 28.1039 19.6285 25.3932C16.9714 22.7361 12.3107 23.2718 10.0714 25.5111C9.26783 26.3146 8.41069 27.5255 8.06783 28.6396C8.54996 28.2111 9.26783 27.6755 9.86783 27.6111C10.1785 27.5789 10.425 27.6861 10.5964 27.9005L10.7678 28.1146L10.4678 28.2968C10.4357 28.3182 7.8214 29.9146 6.93212 31.5432C7.54283 31.2325 8.37853 30.8896 8.7214 31.1682L8.91426 31.3289L8.68926 31.5539C7.75712 32.4646 7.70353 33.3968 7.66069 34.4789C7.58569 36.0325 7.49996 37.7789 4.86426 39.8039C5.76426 39.9218 7.81069 39.8682 9.74996 37.4361C10.7143 36.2146 11.8285 35.7005 11.8714 35.6789L12 35.6255L12.0964 35.6789C12.2785 35.7861 12.3643 36.0218 12.3321 36.3325C12.2893 36.7611 12.0107 37.3718 11.4107 37.9932C12.075 37.9075 13.1143 37.6611 13.8535 36.9218C15.0643 35.7111 15.9 33.9539 15.9107 33.9325L16.1464 33.4289L16.3714 33.8255C16.95 34.8539 16.3071 36.1075 15.6 36.9646Z" fill="url(#paint3_linear_280_1706)"/>
<path d="M4.61792 37.6293C5.35721 37.0293 6.11792 35.8509 6.10721 35.1866C6.09649 34.5759 6.26792 33.7186 6.68578 33.2366C4.84292 34.0186 5.10006 35.2509 5.33578 35.8616C5.44292 36.1293 5.30363 36.9223 4.61792 37.6293Z" fill="url(#paint4_radial_280_1706)"/>
<path d="M6.04297 39.4398C9.53583 38.2935 10.468 34.3292 12.7073 33.6435C14.9573 32.9578 14.3894 35.1007 13.5215 36.0757C13.5215 36.0757 16.4894 33.0971 16.5001 30.7721C16.5215 28.4471 19.6393 32.0792 18.6751 33.9648C18.6751 33.9648 23.443 29.1971 19.6287 25.3935C15.8144 21.5898 10.7465 25.3828 10.7465 25.3828C10.7465 25.3828 13.6394 25.2648 13.3823 27.3648C13.3823 27.3648 11.1537 28.2114 9.39654 29.6148C9.39654 29.6148 10.2537 29.7114 10.843 30.5898C10.843 30.5898 8.21797 32.4007 8.32511 33.9542C8.47511 35.9578 7.16797 39.0757 6.04297 39.4398Z" fill="url(#paint5_linear_280_1706)"/>
<path d="M8.4856 36.4288C10.1142 36.0216 11.5499 32.2073 13.8428 32.4216C15.107 32.5395 14.8178 33.6323 14.8178 33.6323C14.8178 33.6323 15.6963 32.3788 15.8999 30.6966C16.1035 29.0145 19.2428 29.5823 19.1035 32.7538C19.1035 32.7538 22.5535 28.2645 18.3642 25.4038C13.7463 22.2538 10.3606 26.2073 10.3606 26.2073C10.3606 26.2073 13.5213 25.1573 14.0142 27.6645C14.0142 27.6645 11.3999 28.3929 10.4356 29.3573C10.4356 29.3573 11.5499 29.5179 11.8178 30.7073C11.8178 30.7073 9.24632 32.5929 9.32132 33.3429C9.50346 35.1323 8.4856 36.4288 8.4856 36.4288Z" fill="url(#paint6_linear_280_1706)"/>
<path opacity="0.5" d="M8.54994 31.3825C6.0428 33.8146 9.33208 36.4182 4.28564 39.9539C4.28564 39.9539 7.25351 40.9503 9.9428 37.5646C10.8642 36.3968 11.9356 35.9146 11.9356 35.9146C12.2999 36.1289 12.0214 37.3182 10.7249 38.2932C10.7249 38.2932 12.7499 38.3468 14.0142 37.0825C15.2785 35.8182 16.1356 33.9968 16.1356 33.9968C17.0035 35.5182 14.8285 37.4468 14.8285 37.4468C14.8285 37.4468 16.8749 36.9111 19.3071 34.4789C21.1928 32.5932 22.5428 27.8896 19.8321 25.1896C17.1214 22.4896 12.2892 22.9718 9.92137 25.3503C8.88208 26.3896 7.82137 28.0075 7.68208 29.3361C7.68208 29.3361 9.67494 27.1825 10.3821 28.0932C10.3821 28.0932 7.00708 30.1289 6.46064 32.0682C6.47137 32.0682 8.15351 31.0611 8.54994 31.3825Z" fill="url(#paint7_radial_280_1706)"/>
<path opacity="0.5" d="M8.54994 31.3825C6.0428 33.8146 9.33208 36.4182 4.28564 39.9539C4.28564 39.9539 7.25351 40.9503 9.9428 37.5646C10.8642 36.3968 11.9356 35.9146 11.9356 35.9146C12.2999 36.1289 12.0214 37.3182 10.7249 38.2932C10.7249 38.2932 12.7499 38.3468 14.0142 37.0825C15.2785 35.8182 16.1356 33.9968 16.1356 33.9968C17.0035 35.5182 14.8285 37.4468 14.8285 37.4468C14.8285 37.4468 16.8749 36.9111 19.3071 34.4789C21.1928 32.5932 22.5428 27.8896 19.8321 25.1896C17.1214 22.4896 12.2892 22.9718 9.92137 25.3503C8.88208 26.3896 7.82137 28.0075 7.68208 29.3361C7.68208 29.3361 9.67494 27.1825 10.3821 28.0932C10.3821 28.0932 7.00708 30.1289 6.46064 32.0682C6.47137 32.0682 8.15351 31.0611 8.54994 31.3825Z" fill="url(#paint8_radial_280_1706)"/>
<path d="M18.0429 35.2828C20.4858 32.6791 21.8678 28.0291 19.3178 25.4791C16.7679 22.9291 12.075 25.0721 9.99643 26.9898C9.99643 26.9898 11.6571 26.2934 12.9643 27.1291C14.2714 27.9648 10.5321 29.4114 9.75 31.7041C9.75 31.7041 13.0822 29.7005 14.1322 30.5471C15.1822 31.3934 14.1214 34.0614 13.1143 35.0684C13.1143 35.0684 15.5036 33.8471 16.7893 32.2721C18.75 29.8614 18.0429 35.2828 18.0429 35.2828Z" fill="url(#paint9_radial_280_1706)"/>
<path opacity="0.5" d="M8.54994 31.3825C6.0428 33.8146 9.33208 36.4182 4.28564 39.9539C4.28564 39.9539 7.25351 40.9503 9.9428 37.5646C10.8642 36.3968 11.9356 35.9146 11.9356 35.9146C12.2999 36.1289 12.0214 37.3182 10.7249 38.2932C10.7249 38.2932 12.7499 38.3468 14.0142 37.0825C15.2785 35.8182 16.1356 33.9968 16.1356 33.9968C17.0035 35.5182 14.8285 37.4468 14.8285 37.4468C14.8285 37.4468 16.8749 36.9111 19.3071 34.4789C21.1928 32.5932 22.5428 27.8896 19.8321 25.1896C17.1214 22.4896 12.2892 22.9718 9.92137 25.3503C8.88208 26.3896 7.82137 28.0075 7.68208 29.3361C7.68208 29.3361 9.67494 27.1825 10.3821 28.0932C10.3821 28.0932 7.00708 30.1289 6.46064 32.0682C6.47137 32.0682 8.15351 31.0611 8.54994 31.3825Z" fill="url(#paint10_radial_280_1706)"/>
<path opacity="0.5" d="M6.68578 33.2366C4.06078 34.2866 5.75364 36.4936 4.61792 37.6293C4.61792 37.6293 6.12864 36.8043 6.10721 35.1866C6.08578 33.8686 6.68578 33.2366 6.68578 33.2366Z" fill="url(#paint11_radial_280_1706)"/>
<path d="M7.29614 40.8962C7.97114 40.8212 8.95685 39.4389 10.6497 39.1819C10.6497 39.1819 9.26757 41.1962 7.29614 40.8962Z" fill="url(#paint12_radial_280_1706)"/>
<path opacity="0.5" d="M7.29614 40.8971C7.97114 40.8221 9.10685 38.8614 10.6497 39.1828C10.6497 39.1828 9.26757 41.1971 7.29614 40.8971Z" fill="url(#paint13_radial_280_1706)"/>
<path opacity="0.5" d="M8.54994 31.3825C6.0428 33.8146 9.33208 36.4182 4.28564 39.9539C4.28564 39.9539 7.25351 40.9503 9.9428 37.5646C10.8642 36.3968 11.9356 35.9146 11.9356 35.9146C12.2999 36.1289 12.0214 37.3182 10.7249 38.2932C10.7249 38.2932 12.7499 38.3468 14.0142 37.0825C15.2785 35.8182 16.1356 33.9968 16.1356 33.9968C17.0035 35.5182 14.8285 37.4468 14.8285 37.4468C14.8285 37.4468 16.8749 36.9111 19.3071 34.4789C21.1928 32.5932 22.5428 27.8896 19.8321 25.1896C17.1214 22.4896 12.2892 22.9718 9.92137 25.3503C8.88208 26.3896 7.82137 28.0075 7.68208 29.3361C7.68208 29.3361 9.67494 27.1825 10.3821 28.0932C10.3821 28.0932 7.00708 30.1289 6.46064 32.0682C6.47137 32.0682 8.15351 31.0611 8.54994 31.3825Z" fill="url(#paint14_radial_280_1706)"/>
<path opacity="0.25" d="M8.54994 31.3825C6.0428 33.8146 9.33208 36.4182 4.28564 39.9539C4.28564 39.9539 7.25351 40.9503 9.9428 37.5646C10.8642 36.3968 11.9356 35.9146 11.9356 35.9146C12.2999 36.1289 12.0214 37.3182 10.7249 38.2932C10.7249 38.2932 12.7499 38.3468 14.0142 37.0825C15.2785 35.8182 16.1356 33.9968 16.1356 33.9968C17.0035 35.5182 14.8285 37.4468 14.8285 37.4468C14.8285 37.4468 16.8749 36.9111 19.3071 34.4789C21.1928 32.5932 22.5428 27.8896 19.8321 25.1896C17.1214 22.4896 12.2892 22.9718 9.92137 25.3503C8.88208 26.3896 7.82137 28.0075 7.68208 29.3361C7.68208 29.3361 9.67494 27.1825 10.3821 28.0932C10.3821 28.0932 7.00708 30.1289 6.46064 32.0682C6.47137 32.0682 8.15351 31.0611 8.54994 31.3825Z" fill="url(#paint15_radial_280_1706)"/>
<path opacity="0.75" d="M8.54994 31.3825C6.0428 33.8146 9.33208 36.4182 4.28564 39.9539C4.28564 39.9539 7.25351 40.9503 9.9428 37.5646C10.8642 36.3968 11.9356 35.9146 11.9356 35.9146C12.2999 36.1289 12.0214 37.3182 10.7249 38.2932C10.7249 38.2932 12.7499 38.3468 14.0142 37.0825C15.2785 35.8182 16.1356 33.9968 16.1356 33.9968C17.0035 35.5182 14.8285 37.4468 14.8285 37.4468C14.8285 37.4468 16.8749 36.9111 19.3071 34.4789C21.1928 32.5932 22.5428 27.8896 19.8321 25.1896C17.1214 22.4896 12.2892 22.9718 9.92137 25.3503C8.88208 26.3896 7.82137 28.0075 7.68208 29.3361C7.68208 29.3361 9.67494 27.1825 10.3821 28.0932C10.3821 28.0932 7.00708 30.1289 6.46064 32.0682C6.47137 32.0682 8.15351 31.0611 8.54994 31.3825Z" fill="url(#paint16_radial_280_1706)"/>
<path d="M28.789 28.9932C28.5424 26.6041 29.0996 24.0648 30.3639 21.7718L30.7603 21.0432L24.5781 25.0825L24.064 28.8005L21.6531 31.1148C22.1674 33.1291 22.189 35.1005 22.189 35.1005C26.2924 32.6468 28.789 28.9932 28.789 28.9932Z" fill="url(#paint17_linear_280_1706)"/>
<path d="M22.1997 35.1108C22.1997 35.1108 22.1891 33.1179 21.6641 31.1251L22.682 30.1501C22.9927 30.8358 23.6034 32.3788 23.7534 34.0822C23.2604 34.4251 22.7461 34.7895 22.1997 35.1108Z" fill="url(#paint18_linear_280_1706)"/>
<path opacity="0.75" d="M28.789 28.9932C28.5424 26.6041 29.0996 24.0648 30.3639 21.7718L30.7603 21.0432L24.5781 25.0825L24.064 28.8005L21.6531 31.1148C22.1674 33.1291 22.189 35.1005 22.189 35.1005C26.2924 32.6468 28.789 28.9932 28.789 28.9932Z" fill="url(#paint19_radial_280_1706)"/>
<path d="M29.389 23.9892C29.6462 23.2392 29.9676 22.4892 30.364 21.7713L30.589 21.3642C30.5354 21.3321 30.4819 21.2999 30.4283 21.2678L24.589 25.0928L24.2354 27.5999C25.564 27.0535 27.4497 25.9392 29.389 23.9892Z" fill="url(#paint20_linear_280_1706)"/>
<path d="M22.682 14.6787C22.6177 14.5287 22.5855 14.4215 22.532 14.2822C20.2284 15.3751 17.6248 15.6858 15.1177 15.2144C15.1177 15.2144 11.4106 17.6465 9.12842 21.9536C9.12842 21.9536 11.2498 22.1572 13.4784 22.9179L15.7606 20.4643L19.4463 20.25C20.2713 18.3965 21.2677 16.4144 22.682 14.6787Z" fill="url(#paint21_linear_280_1706)"/>
<path d="M9.12842 21.9428C9.12842 21.9428 11.2498 22.1464 13.4784 22.9071L14.4534 21.8571C13.6713 21.45 11.9784 20.6678 10.1034 20.3357C9.76056 20.8393 9.42842 21.375 9.12842 21.9428Z" fill="url(#paint22_linear_280_1706)"/>
<path opacity="0.75" d="M22.682 14.6787C22.6177 14.5287 22.5855 14.4215 22.532 14.2822C20.2284 15.3751 17.6248 15.6858 15.1177 15.2144C15.1177 15.2144 11.4106 17.6465 9.12842 21.9536C9.12842 21.9536 11.2498 22.1572 13.4784 22.9179L15.7606 20.4643L19.4463 20.25C20.2713 18.3965 21.2677 16.4144 22.682 14.6787Z" fill="url(#paint23_radial_280_1706)"/>
<path d="M22.5322 14.2712C21.6322 14.9569 18.8144 17.6784 17.8286 20.3248L19.4358 20.2284C20.2608 18.3962 21.5144 16.3712 22.9285 14.6355L22.5322 14.2712Z" fill="url(#paint24_linear_280_1706)"/>
<path d="M23.5071 13.7472C24.4607 15.3007 25.725 16.8436 27.1285 18.215C27.1928 18.2793 27.2678 18.3436 27.3321 18.4079C28.5214 19.5435 29.8071 20.5508 31.1143 21.3544C31.2321 21.2364 31.35 21.1294 31.4678 21.0114C34.8428 17.6365 36.8035 15.0972 38.4857 11.8722C37.2857 9.54716 35.3143 7.57573 32.9893 6.37573C29.7643 8.05787 27.2357 10.0079 23.85 13.3936C23.7321 13.5115 23.6143 13.6293 23.5071 13.7472Z" fill="url(#paint25_linear_280_1706)"/>
<path d="M38.4746 11.8718C40.7567 7.48962 40.4676 5.13247 40.0926 4.75747C39.7176 4.38247 37.371 4.09319 32.9783 6.37533C35.3033 7.57533 37.2746 9.54676 38.4746 11.8718Z" fill="url(#paint26_linear_280_1706)"/>
<path d="M19.6392 25.2215C20.8501 26.4324 21.9642 27.3215 22.2642 27.3215C24.9858 26.1324 28.2321 24.1394 31.1144 21.3538C29.8178 20.5501 28.5215 19.5431 27.3322 18.4073C27.2678 18.343 27.1928 18.2787 27.1285 18.2144C25.7251 16.843 24.4608 15.3002 23.5072 13.7466C20.7215 16.6287 18.7286 19.8965 17.5393 22.6181C17.5822 22.9501 18.45 24.0431 19.6392 25.2215Z" fill="url(#paint27_linear_280_1706)"/>
<path opacity="0.75" d="M19.6392 25.2215C20.8501 26.4324 21.9642 27.3215 22.2642 27.3215C24.9858 26.1324 28.2321 24.1394 31.1144 21.3538C29.8178 20.5501 28.5215 19.5431 27.3322 18.4073C27.2678 18.343 27.1928 18.2787 27.1285 18.2144C25.7251 16.843 24.4608 15.3002 23.5072 13.7466C20.7215 16.6287 18.7286 19.8965 17.5393 22.6181C17.5822 22.9501 18.45 24.0431 19.6392 25.2215Z" fill="url(#paint28_radial_280_1706)"/>
<path opacity="0.5" d="M27.3321 18.4073C27.2678 18.343 27.1928 18.2787 27.1285 18.2144C25.725 16.843 24.4607 15.3002 23.5071 13.7466C23.4321 13.8216 23.3678 13.8966 23.3035 13.9716C25.2535 17.6573 31.2107 21.1715 26.6678 23.0251C23.6893 24.2465 22.35 25.6931 21.6321 26.9788C21.9321 27.2038 22.1678 27.3215 22.275 27.3215C24.9964 26.1324 28.2428 24.1394 31.125 21.3538C29.8071 20.5501 28.5214 19.5431 27.3321 18.4073Z" fill="url(#paint29_radial_280_1706)"/>
<path d="M19.6392 25.2218C18.4606 24.0432 17.5928 22.9502 17.5392 22.6182L15.8678 23.3575C15.6749 23.5502 16.7678 24.9752 18.3321 26.5289C19.8855 28.0825 21.3105 29.1859 21.5035 28.9932L22.2641 27.3218C21.9641 27.3218 20.8498 26.4325 19.6392 25.2218Z" fill="url(#paint30_linear_280_1706)"/>
<path d="M19.6392 25.2218C18.4606 24.0432 17.5928 22.9502 17.5392 22.6182L15.8678 23.3575C15.6749 23.5502 16.7678 24.9752 18.3321 26.5289C19.8855 28.0825 21.3105 29.1859 21.5035 28.9932L22.2641 27.3218C21.9641 27.3218 20.8498 26.4325 19.6392 25.2218Z" fill="url(#paint31_linear_280_1706)"/>
<path d="M38.0143 12.7293C38.0357 12.6972 38.4643 11.9043 38.475 11.8722C37.275 9.54716 35.3035 7.57573 32.9785 6.37573C32.9464 6.39716 32.9143 6.40787 32.8821 6.4293C35.1643 7.72573 37.7464 10.64 38.0143 12.7293Z" fill="url(#paint32_linear_280_1706)"/>
<path opacity="0.75" d="M40.0931 4.75747C39.7181 4.38247 37.3717 4.09319 32.9788 6.37533C29.7538 8.05747 27.2253 10.0075 23.8394 13.3932C23.7217 13.5111 23.6144 13.6289 23.4967 13.7468C20.711 16.6289 18.7181 19.8968 17.5288 22.6182C17.5824 22.9503 18.4502 24.0432 19.6288 25.2218C20.8394 26.4325 21.9538 27.3218 22.2538 27.3218C24.9753 26.1325 28.2217 24.1396 31.1038 21.3539C31.2217 21.2361 31.3396 21.1289 31.4574 21.0111C34.8324 17.6361 36.7931 15.0968 38.4753 11.8718C40.7681 7.48962 40.4788 5.13247 40.0931 4.75747Z" fill="url(#paint33_radial_280_1706)"/>
<path d="M17.0463 30.6865C20.6463 27.7829 23.4642 24.5472 23.5392 24.4615L22.9819 23.9043C22.9819 23.9043 20.0463 27.1079 16.5427 30.1829L17.0463 30.6865Z" fill="url(#paint34_linear_280_1706)"/>
<path d="M22.9713 23.9043C23.6249 22.6615 24.7283 21.0972 26.1427 19.4152C26.1106 19.3829 26.0783 19.3509 26.0356 19.3186C24.5033 20.7759 22.982 22.0936 21.6213 23.2509L20.0356 25.5759L17.6462 27.9222C17.2284 28.9722 16.5212 30.1829 16.5212 30.1829C20.0356 27.1079 22.9713 23.9043 22.9713 23.9043Z" fill="url(#paint35_linear_280_1706)"/>
<path d="M17.7744 29.0684C17.7744 29.0684 18.6101 27.5577 18.5351 27.0649L17.6565 27.9327C17.2387 28.9827 16.5315 30.1934 16.5315 30.1934C16.9601 29.8077 17.3672 29.4327 17.7744 29.0684Z" fill="url(#paint36_linear_280_1706)"/>
<path d="M23.5392 24.4621C24.0106 23.0265 25.0713 21.4194 26.4319 19.6728C26.3356 19.5871 26.2499 19.5015 26.1535 19.4158C24.7392 21.0978 23.6356 22.6621 22.9819 23.9051C22.9819 23.9051 20.0463 27.1085 16.5427 30.1835L17.057 30.6871C20.6892 27.7515 23.5392 24.4621 23.5392 24.4621Z" fill="url(#paint37_linear_280_1706)"/>
<path d="M17.0463 30.6865C20.6463 27.7829 23.4642 24.5472 23.5392 24.4615L22.9819 23.9043C22.9819 23.9043 20.0463 27.1079 16.5427 30.1829L17.0463 30.6865Z" fill="url(#paint38_linear_280_1706)"/>
<path opacity="0.75" d="M22.9713 23.9043C23.6249 22.6615 24.7283 21.0972 26.1427 19.4152C26.1106 19.3829 26.0783 19.3509 26.0356 19.3186C24.5033 20.7759 22.982 22.0936 21.6213 23.2509L20.0356 25.5759L17.6462 27.9222C17.2284 28.9722 16.5212 30.1829 16.5212 30.1829C20.0356 27.1079 22.9713 23.9043 22.9713 23.9043Z" fill="url(#paint39_radial_280_1706)"/>
<path opacity="0.75" d="M40.0931 4.75747C39.7181 4.38247 37.3717 4.09319 32.9788 6.37533C29.7538 8.05747 27.2253 10.0075 23.8394 13.3932C23.7217 13.5111 23.6144 13.6289 23.4967 13.7468C20.711 16.6289 18.7181 19.8968 17.5288 22.6182C17.5824 22.9503 18.4502 24.0432 19.6288 25.2218C20.8394 26.4325 21.9538 27.3218 22.2538 27.3218C24.9753 26.1325 28.2217 24.1396 31.1038 21.3539C31.2217 21.2361 31.3396 21.1289 31.4574 21.0111C34.8324 17.6361 36.7931 15.0968 38.4753 11.8718C40.7681 7.48962 40.4788 5.13247 40.0931 4.75747Z" fill="url(#paint40_radial_280_1706)"/>
<g opacity="0.16">
<path opacity="0.16" d="M32.4321 20.0467C31.0178 19.2111 29.5498 18.0754 28.1571 16.6932C26.7748 15.3111 25.6392 13.8432 24.8035 12.4182" stroke="black" stroke-width="0.9375" stroke-miterlimit="10" stroke-linecap="round" stroke-linejoin="round"/>
<path opacity="0.16" d="M36.6321 12.4082C36.9535 12.8046 37.2428 13.1903 37.5214 13.576" stroke="black" stroke-width="0.9375" stroke-miterlimit="10" stroke-linecap="round" stroke-linejoin="round"/>
<g opacity="0.16">
<path opacity="0.16" d="M34.8961 7.56494C34.7567 7.66137 34.6174 7.76851 34.4783 7.87565C31.6711 9.97565 29.2924 12.0864 25.9174 15.4614C25.7997 15.5792 25.6817 15.6971 25.5747 15.8149C25.4674 15.9328 25.3497 16.0399 25.2424 16.1578" stroke="black" stroke-width="0.9375" stroke-miterlimit="10" stroke-linecap="round" stroke-linejoin="round"/>
</g>
<path opacity="0.16" d="M30.9426 19.0724C33.9104 16.051 35.8069 13.7581 37.5961 10.9938C37.6711 10.8867 37.7354 10.7795 37.7997 10.6724" stroke="black" stroke-width="0.9375" stroke-miterlimit="10" stroke-linecap="round" stroke-linejoin="round"/>
</g>
<path opacity="0.75" d="M21.5034 26.5609C23.9677 25.1252 27.0214 22.9181 29.882 20.1216L21.5034 26.5609Z" fill="url(#paint41_radial_280_1706)"/>
<path d="M32.5496 14.0359C31.1782 15.3002 29.1425 15.3109 28.0067 14.0573C26.871 12.8037 27.0746 10.7573 28.446 9.49304C29.8175 8.22874 31.8532 8.21804 32.9889 9.47161C34.1246 10.7252 33.921 12.7716 32.5496 14.0359Z" fill="url(#paint42_linear_280_1706)"/>
<path d="M31.9603 13.3285C30.8353 14.3678 29.1639 14.3785 28.2318 13.3499C27.2996 12.3214 27.4603 10.6392 28.596 9.59992C29.7212 8.56065 31.3925 8.54992 32.3246 9.57851C33.2462 10.6071 33.0853 12.2892 31.9603 13.3285Z" fill="url(#paint43_linear_280_1706)"/>
<path d="M31.6927 13.0503C30.6855 13.9825 29.1962 13.9825 28.3712 13.0717C27.5462 12.1503 27.6855 10.661 28.6925 9.7289C29.6998 8.79677 31.1891 8.79677 32.0141 9.70747C32.8391 10.6182 32.6998 12.1182 31.6927 13.0503Z" fill="url(#paint44_radial_280_1706)"/>
<path opacity="0.5" d="M31.6927 13.0503C30.6855 13.9825 29.1962 13.9825 28.3712 13.0717C27.5462 12.1503 27.6855 10.661 28.6925 9.7289C29.6998 8.79677 31.1891 8.79677 32.0141 9.70747C32.8391 10.6182 32.6998 12.1182 31.6927 13.0503Z" fill="url(#paint45_radial_280_1706)"/>
<path opacity="0.5" d="M31.8211 10.3936C32.1961 10.8114 32.3998 11.3364 32.4425 11.8829C32.6782 11.1221 32.5497 10.2971 32.0141 9.70787C31.1891 8.78644 29.6997 8.79714 28.6925 9.7293C28.5961 9.82573 28.4997 9.92214 28.4141 10.0293C29.5604 9.33287 30.9748 9.46144 31.8211 10.3936Z" fill="black"/>
<path d="M32.0141 9.70787C31.1891 8.78644 29.6998 8.79714 28.6925 9.7293C27.6855 10.6614 27.5462 12.1507 28.3712 13.0721C28.4568 13.1686 28.5425 13.2329 28.4891 13.19C27.7498 12.4507 27.9748 10.9293 28.9284 9.97571C29.6998 9.2043 31.1784 8.92573 32.0141 9.70787Z" fill="url(#paint46_linear_280_1706)"/>
<path opacity="0.5" d="M32.0141 9.70747C31.1785 8.91463 29.6891 9.2039 28.9285 9.96463C28.0178 10.8753 27.7714 12.311 28.3928 13.0825C28.4891 13.136 28.5321 13.2325 28.4785 13.1896C28.4464 13.1575 28.4141 13.1253 28.3928 13.0825C28.3821 13.0825 28.3714 13.0718 28.3605 13.0718C29.1855 13.9932 30.6748 13.9825 31.6821 13.0503C32.6998 12.1182 32.8498 10.6289 32.0141 9.70747Z" fill="url(#paint47_radial_280_1706)"/>
<path d="M38.4962 11.8395C37.2962 9.51448 35.3462 7.55376 33.0212 6.35376" stroke="#008EE6" stroke-width="1.40625" stroke-miterlimit="10" stroke-linecap="round" stroke-linejoin="round"/>
<path d="M31.1143 21.3538C29.8178 20.5501 28.5214 19.5431 27.3321 18.4073C27.2678 18.343 27.1928 18.2787 27.1285 18.2144C25.725 16.843 24.4607 15.3002 23.5071 13.7466" stroke="#008EE6" stroke-width="1.40625" stroke-miterlimit="10" stroke-linecap="round" stroke-linejoin="round"/>
<defs>
<linearGradient id="paint0_linear_280_1706" x1="19.2355" y1="23.7882" x2="2.17443" y2="46.3116" gradientUnits="userSpaceOnUse">
<stop stop-color="#FF0000"/>
<stop offset="0.2317" stop-color="#FF1500"/>
<stop offset="0.7367" stop-color="#FF3D00"/>
<stop offset="0.9987" stop-color="#FF4C00"/>
</linearGradient>
<linearGradient id="paint1_linear_280_1706" x1="15.9585" y1="21.6693" x2="-0.896963" y2="43.9213" gradientUnits="userSpaceOnUse">
<stop stop-color="#FF0000"/>
<stop offset="0.2317" stop-color="#FF1500"/>
<stop offset="0.7367" stop-color="#FF3D00"/>
<stop offset="0.9987" stop-color="#FF4C00"/>
</linearGradient>
<linearGradient id="paint2_linear_280_1706" x1="20.7715" y1="24.4691" x2="3.48129" y2="47.2946" gradientUnits="userSpaceOnUse">
<stop stop-color="#FF0000"/>
<stop offset="0.2317" stop-color="#FF1500"/>
<stop offset="0.7367" stop-color="#FF3D00"/>
<stop offset="0.9987" stop-color="#FF4C00"/>
</linearGradient>
<linearGradient id="paint3_linear_280_1706" x1="15.8552" y1="27.3194" x2="4.86795" y2="50.1468" gradientUnits="userSpaceOnUse">
<stop stop-color="#FF8000"/>
<stop offset="0.6388" stop-color="#FF5B00"/>
<stop offset="0.9987" stop-color="#FF4C00"/>
</linearGradient>
<radialGradient id="paint4_radial_280_1706" cx="0" cy="0" r="1" gradientUnits="userSpaceOnUse" gradientTransform="translate(0.163497 39.2669) rotate(-135) scale(8.86136 11.2525)">
<stop offset="0.00134333" stop-color="#FFED1C" stop-opacity="0.6"/>
<stop offset="0.9477" stop-color="#FFED1C" stop-opacity="0.0264782"/>
<stop offset="0.9914" stop-color="#FFED1C" stop-opacity="0"/>
</radialGradient>
<linearGradient id="paint5_linear_280_1706" x1="6.94524" y1="40.9172" x2="16.8601" y2="26.7002" gradientUnits="userSpaceOnUse">
<stop stop-color="#FF8000"/>
<stop offset="0.022669" stop-color="#FE7F02" stop-opacity="0.9773"/>
<stop offset="0.6663" stop-color="#ED582A" stop-opacity="0.3337"/>
<stop offset="1" stop-color="#E74939" stop-opacity="0"/>
</linearGradient>
<linearGradient id="paint6_linear_280_1706" x1="18.3362" y1="26.2121" x2="9.37011" y2="34.2454" gradientUnits="userSpaceOnUse">
<stop stop-color="#FFBC47"/>
<stop offset="0.1869" stop-color="#FFB137" stop-opacity="0.8131"/>
<stop offset="0.7223" stop-color="#FF940F" stop-opacity="0.2777"/>
<stop offset="1" stop-color="#FF8900" stop-opacity="0"/>
</linearGradient>
<radialGradient id="paint7_radial_280_1706" cx="0" cy="0" r="1" gradientUnits="userSpaceOnUse" gradientTransform="translate(16.0594 28.5919) rotate(-135) scale(6.85476 7.06556)">
<stop offset="0.00134333" stop-color="#FFBC47"/>
<stop offset="0.2941" stop-color="#FFBF4B" stop-opacity="0.7068"/>
<stop offset="0.5624" stop-color="#FEC656" stop-opacity="0.4382"/>
<stop offset="0.8201" stop-color="#FCD368" stop-opacity="0.1801"/>
<stop offset="1" stop-color="#FBE07A" stop-opacity="0"/>
</radialGradient>
<radialGradient id="paint8_radial_280_1706" cx="0" cy="0" r="1" gradientUnits="userSpaceOnUse" gradientTransform="translate(15.8064 28.8451) rotate(-135) scale(6.64354 6.84784)">
<stop offset="0.00134333" stop-color="white"/>
<stop offset="1" stop-color="white" stop-opacity="0"/>
</radialGradient>
<radialGradient id="paint9_radial_280_1706" cx="0" cy="0" r="1" gradientUnits="userSpaceOnUse" gradientTransform="translate(19.0169 29.7545) rotate(-135) scale(8.16111 12.0676)">
<stop offset="0.00134333" stop-color="#FFED1C" stop-opacity="0.6"/>
<stop offset="0.9477" stop-color="#FFED1C" stop-opacity="0.0264782"/>
<stop offset="0.9914" stop-color="#FFED1C" stop-opacity="0"/>
</radialGradient>
<radialGradient id="paint10_radial_280_1706" cx="0" cy="0" r="1" gradientUnits="userSpaceOnUse" gradientTransform="translate(15.9072 28.7909) rotate(-42.7273) scale(3.27478 2.09492)">
<stop offset="0.00134333" stop-color="white"/>
<stop offset="1" stop-color="white" stop-opacity="0"/>
</radialGradient>
<radialGradient id="paint11_radial_280_1706" cx="0" cy="0" r="1" gradientUnits="userSpaceOnUse" gradientTransform="translate(4.76698 37.868) rotate(-135) scale(2.92772 3.71773)">
<stop offset="0.00134333" stop-color="#FFED1C"/>
<stop offset="0.1997" stop-color="#FFEE2B" stop-opacity="0.8013"/>
<stop offset="0.5839" stop-color="#FFF254" stop-opacity="0.4167"/>
<stop offset="1" stop-color="#FFF686" stop-opacity="0"/>
</radialGradient>
<radialGradient id="paint12_radial_280_1706" cx="0" cy="0" r="1" gradientUnits="userSpaceOnUse" gradientTransform="translate(9.49014 39.9823) rotate(162.598) scale(2.8314 0.572897)">
<stop offset="0.00134333" stop-color="#FFED1C" stop-opacity="0.6"/>
<stop offset="0.9477" stop-color="#FFED1C" stop-opacity="0.0264782"/>
<stop offset="0.9914" stop-color="#FFED1C" stop-opacity="0"/>
</radialGradient>
<radialGradient id="paint13_radial_280_1706" cx="0" cy="0" r="1" gradientUnits="userSpaceOnUse" gradientTransform="translate(7.48533 41.3103) rotate(-41.019) scale(2.70244 0.858615)">
<stop offset="0.00134333" stop-color="#FFED1C"/>
<stop offset="0.1997" stop-color="#FFEE2B" stop-opacity="0.8013"/>
<stop offset="0.5839" stop-color="#FFF254" stop-opacity="0.4167"/>
<stop offset="1" stop-color="#FFF686" stop-opacity="0"/>
</radialGradient>
<radialGradient id="paint14_radial_280_1706" cx="0" cy="0" r="1" gradientUnits="userSpaceOnUse" gradientTransform="translate(4.88953 38.665) rotate(-135) scale(9.13536 11.6004)">
<stop offset="0.00134333" stop-color="#FF4C00"/>
<stop offset="0.135" stop-color="#FF5B0C" stop-opacity="0.8661"/>
<stop offset="0.3941" stop-color="#FF842C" stop-opacity="0.6067"/>
<stop offset="0.7491" stop-color="#FFC45F" stop-opacity="0.2512"/>
<stop offset="1" stop-color="#FFF686" stop-opacity="0"/>
</radialGradient>
<radialGradient id="paint15_radial_280_1706" cx="0" cy="0" r="1" gradientUnits="userSpaceOnUse" gradientTransform="translate(8.59702 29.0815) rotate(-135) scale(4.8489 6.15733)">
<stop offset="0.00134333" stop-color="#FFED1C"/>
<stop offset="0.1997" stop-color="#FFEE2B" stop-opacity="0.8013"/>
<stop offset="0.5839" stop-color="#FFF254" stop-opacity="0.4167"/>
<stop offset="1" stop-color="#FFF686" stop-opacity="0"/>
</radialGradient>
<radialGradient id="paint16_radial_280_1706" cx="0" cy="0" r="1" gradientUnits="userSpaceOnUse" gradientTransform="translate(15.8016 29.305) rotate(-135) scale(10.1396 12.8757)">
<stop offset="0.00134333" stop-color="#FFED1C"/>
<stop offset="0.1997" stop-color="#FFEE2B" stop-opacity="0.8013"/>
<stop offset="0.5839" stop-color="#FFF254" stop-opacity="0.4167"/>
<stop offset="1" stop-color="#FFF686" stop-opacity="0"/>
</radialGradient>
<linearGradient id="paint17_linear_280_1706" x1="18.382" y1="36.1203" x2="29.37" y2="24.2705" gradientUnits="userSpaceOnUse">
<stop stop-color="#BD2719"/>
<stop offset="0.2151" stop-color="#D41A10"/>
<stop offset="0.5049" stop-color="#EC0C07"/>
<stop offset="0.774" stop-color="#FA0302"/>
<stop offset="1" stop-color="#FF0000"/>
</linearGradient>
<linearGradient id="paint18_linear_280_1706" x1="24.7704" y1="30.5679" x2="21.3232" y2="33.9536" gradientUnits="userSpaceOnUse">
<stop stop-color="#FC8D41"/>
<stop offset="0.0900324" stop-color="#FC7837"/>
<stop offset="0.294" stop-color="#FD4D24"/>
<stop offset="0.4922" stop-color="#FE2C14"/>
<stop offset="0.6802" stop-color="#FF1409"/>
<stop offset="0.854" stop-color="#FF0502"/>
<stop offset="1" stop-color="#FF0000"/>
</linearGradient>
<radialGradient id="paint19_radial_280_1706" cx="0" cy="0" r="1" gradientUnits="userSpaceOnUse" gradientTransform="translate(16.7971 34.6238) rotate(45) scale(14.8658)">
<stop offset="0.00134333" stop-color="#FFED1C"/>
<stop offset="0.1997" stop-color="#FFEE2B" stop-opacity="0.8013"/>
<stop offset="0.5839" stop-color="#FFF254" stop-opacity="0.4167"/>
<stop offset="1" stop-color="#FFF686" stop-opacity="0"/>
</radialGradient>
<linearGradient id="paint20_linear_280_1706" x1="25.0275" y1="26.8129" x2="42.0584" y2="7.07334" gradientUnits="userSpaceOnUse">
<stop stop-color="#BD2719"/>
<stop offset="0.2151" stop-color="#D41A10"/>
<stop offset="0.5049" stop-color="#EC0C07"/>
<stop offset="0.774" stop-color="#FA0302"/>
<stop offset="1" stop-color="#FF0000"/>
</linearGradient>
<linearGradient id="paint21_linear_280_1706" x1="7.8111" y1="22.3646" x2="18.1877" y2="17.2721" gradientUnits="userSpaceOnUse">
<stop stop-color="#BD2719"/>
<stop offset="0.2151" stop-color="#D41A10"/>
<stop offset="0.5049" stop-color="#EC0C07"/>
<stop offset="0.774" stop-color="#FA0302"/>
<stop offset="1" stop-color="#FF0000"/>
</linearGradient>
<linearGradient id="paint22_linear_280_1706" x1="13.7347" y1="19.3581" x2="10.4721" y2="23.2361" gradientUnits="userSpaceOnUse">
<stop stop-color="#FC8D41"/>
<stop offset="0.0900324" stop-color="#FC7837"/>
<stop offset="0.294" stop-color="#FD4D24"/>
<stop offset="0.4922" stop-color="#FE2C14"/>
<stop offset="0.6802" stop-color="#FF1409"/>
<stop offset="0.854" stop-color="#FF0502"/>
<stop offset="1" stop-color="#FF0000"/>
</linearGradient>
<radialGradient id="paint23_radial_280_1706" cx="0" cy="0" r="1" gradientUnits="userSpaceOnUse" gradientTransform="translate(15.32 28.7139) rotate(45) scale(15.9896)">
<stop offset="0.00134333" stop-color="#FFED1C"/>
<stop offset="0.1997" stop-color="#FFEE2B" stop-opacity="0.8013"/>
<stop offset="0.5839" stop-color="#FFF254" stop-opacity="0.4167"/>
<stop offset="1" stop-color="#FFF686" stop-opacity="0"/>
</radialGradient>
<linearGradient id="paint24_linear_280_1706" x1="22.1605" y1="17.2071" x2="5.42526" y2="17.9897" gradientUnits="userSpaceOnUse">
<stop stop-color="#BD2719"/>
<stop offset="0.2151" stop-color="#D41A10"/>
<stop offset="0.5049" stop-color="#EC0C07"/>
<stop offset="0.774" stop-color="#FA0302"/>
<stop offset="1" stop-color="#FF0000"/>
</linearGradient>
<linearGradient id="paint25_linear_280_1706" x1="28.2152" y1="10.033" x2="34.95" y2="16.7678" gradientUnits="userSpaceOnUse">
<stop stop-color="#BBCACC"/>
<stop offset="0.3717" stop-color="white"/>
<stop offset="1" stop-color="#99AFB3"/>
</linearGradient>
<linearGradient id="paint26_linear_280_1706" x1="39.631" y1="9.57685" x2="35.9646" y2="4.81865" gradientUnits="userSpaceOnUse">
<stop stop-color="#008EE6"/>
<stop offset="0.688" stop-color="#80DAFE"/>
<stop offset="0.7325" stop-color="#76D5FB"/>
<stop offset="0.8071" stop-color="#5CC8F3"/>
<stop offset="0.9026" stop-color="#32B2E6"/>
<stop offset="1" stop-color="#0099D6"/>
</linearGradient>
<linearGradient id="paint27_linear_280_1706" x1="26.7312" y1="24.6151" x2="19.0777" y2="17.0026" gradientUnits="userSpaceOnUse">
<stop stop-color="#008EE6"/>
<stop offset="0.688" stop-color="#80DAFE"/>
<stop offset="0.7325" stop-color="#76D5FB"/>
<stop offset="0.8071" stop-color="#5CC8F3"/>
<stop offset="0.9026" stop-color="#32B2E6"/>
<stop offset="1" stop-color="#0099D6"/>
</linearGradient>
<radialGradient id="paint28_radial_280_1706" cx="0" cy="0" r="1" gradientUnits="userSpaceOnUse" gradientTransform="translate(21.5354 27.1394) rotate(45) scale(7.28246 13.329)">
<stop stop-opacity="0.75"/>
<stop offset="1" stop-opacity="0"/>
</radialGradient>
<radialGradient id="paint29_radial_280_1706" cx="0" cy="0" r="1" gradientUnits="userSpaceOnUse" gradientTransform="translate(30.0221 25.4238) rotate(45) scale(7.28246 13.329)">
<stop stop-opacity="0.75"/>
<stop offset="1" stop-opacity="0"/>
</radialGradient>
<linearGradient id="paint30_linear_280_1706" x1="16.8201" y1="22.5533" x2="21.6207" y2="28.8567" gradientUnits="userSpaceOnUse">
<stop/>
<stop offset="0.1962" stop-color="#4D4D4C"/>
<stop offset="0.7655"/>
</linearGradient>
<linearGradient id="paint31_linear_280_1706" x1="16.8201" y1="22.5533" x2="21.6207" y2="28.8567" gradientUnits="userSpaceOnUse">
<stop stop-opacity="0"/>
<stop offset="0.1975" stop-color="#CFDCDE" stop-opacity="0.5"/>
<stop offset="0.7655" stop-opacity="0"/>
</linearGradient>
<linearGradient id="paint32_linear_280_1706" x1="26.875" y1="7.58423" x2="37.8836" y2="10.0978" gradientUnits="userSpaceOnUse">
<stop stop-color="#BBCACC"/>
<stop offset="0.3717" stop-color="white"/>
<stop offset="1" stop-color="#99AFB3"/>
</linearGradient>
<radialGradient id="paint33_radial_280_1706" cx="0" cy="0" r="1" gradientUnits="userSpaceOnUse" gradientTransform="translate(30.1426 21.3766) rotate(44.2342) scale(4.69867 15.2158)">
<stop stop-color="#440063" stop-opacity="0.75"/>
<stop offset="1" stop-color="#420061" stop-opacity="0"/>
</radialGradient>
<linearGradient id="paint34_linear_280_1706" x1="16.2389" y1="29.7309" x2="28.8891" y2="21.5744" gradientUnits="userSpaceOnUse">
<stop stop-color="#BD2719"/>
<stop offset="0.2151" stop-color="#D41A10"/>
<stop offset="0.5049" stop-color="#EC0C07"/>
<stop offset="0.774" stop-color="#FA0302"/>
<stop offset="1" stop-color="#FF0000"/>
</linearGradient>
<linearGradient id="paint35_linear_280_1706" x1="14.184" y1="30.161" x2="20.7083" y2="25.1935" gradientUnits="userSpaceOnUse">
<stop stop-color="#BD2719"/>
<stop offset="0.2151" stop-color="#D41A10"/>
<stop offset="0.5049" stop-color="#EC0C07"/>
<stop offset="0.774" stop-color="#FA0302"/>
<stop offset="1" stop-color="#FF0000"/>
</linearGradient>
<linearGradient id="paint36_linear_280_1706" x1="20.3897" y1="25.9791" x2="16.6552" y2="29.4674" gradientUnits="userSpaceOnUse">
<stop stop-color="#FC8D41"/>
<stop offset="0.0900324" stop-color="#FC7837"/>
<stop offset="0.294" stop-color="#FD4D24"/>
<stop offset="0.4922" stop-color="#FE2C14"/>
<stop offset="0.6802" stop-color="#FF1409"/>
<stop offset="0.854" stop-color="#FF0502"/>
<stop offset="1" stop-color="#FF0000"/>
</linearGradient>
<linearGradient id="paint37_linear_280_1706" x1="20.2677" y1="28.3972" x2="24.6934" y2="15.7321" gradientUnits="userSpaceOnUse">
<stop stop-color="#BD2719"/>
<stop offset="0.2151" stop-color="#D41A10"/>
<stop offset="0.5049" stop-color="#EC0C07"/>
<stop offset="0.774" stop-color="#FA0302"/>
<stop offset="1" stop-color="#FF0000"/>
</linearGradient>
<linearGradient id="paint38_linear_280_1706" x1="16.2389" y1="29.7309" x2="28.8891" y2="21.5744" gradientUnits="userSpaceOnUse">
<stop stop-color="#BD2719"/>
<stop offset="0.2151" stop-color="#D41A10"/>
<stop offset="0.5049" stop-color="#EC0C07"/>
<stop offset="0.774" stop-color="#FA0302"/>
<stop offset="1" stop-color="#FF0000"/>
</linearGradient>
<radialGradient id="paint39_radial_280_1706" cx="0" cy="0" r="1" gradientUnits="userSpaceOnUse" gradientTransform="translate(16.1296 28.6224) rotate(-39.0499) scale(11.2036 3.75703)">
<stop offset="0.00134333" stop-color="#FFED1C"/>
<stop offset="0.1997" stop-color="#FFEE2B" stop-opacity="0.8013"/>
<stop offset="0.5839" stop-color="#FFF254" stop-opacity="0.4167"/>
<stop offset="1" stop-color="#FFF686" stop-opacity="0"/>
</radialGradient>
<radialGradient id="paint40_radial_280_1706" cx="0" cy="0" r="1" gradientUnits="userSpaceOnUse" gradientTransform="translate(26.8925 13.7155) rotate(44.2342) scale(4.69867 15.2158)">
<stop stop-color="white" stop-opacity="0.5"/>
<stop offset="1" stop-color="white" stop-opacity="0"/>
</radialGradient>
<radialGradient id="paint41_radial_280_1706" cx="0" cy="0" r="1" gradientUnits="userSpaceOnUse" gradientTransform="translate(25.851 24.4658) rotate(43.8644) scale(1.14084 5.47787)">
<stop stop-color="#440063" stop-opacity="0.75"/>
<stop offset="1" stop-color="#420061" stop-opacity="0"/>
</radialGradient>
<linearGradient id="paint42_linear_280_1706" x1="28.7235" y1="15.5836" x2="32.2562" y2="7.97624" gradientUnits="userSpaceOnUse">
<stop stop-color="#BD2719"/>
<stop offset="0.2151" stop-color="#D41A10"/>
<stop offset="0.5049" stop-color="#EC0C07"/>
<stop offset="0.774" stop-color="#FA0302"/>
<stop offset="1" stop-color="#FF0000"/>
</linearGradient>
<linearGradient id="paint43_linear_280_1706" x1="31.2414" y1="8.25562" x2="29.3177" y2="14.6422" gradientUnits="userSpaceOnUse">
<stop stop-color="#FC8D41"/>
<stop offset="0.0900324" stop-color="#FC7837"/>
<stop offset="0.294" stop-color="#FD4D24"/>
<stop offset="0.4922" stop-color="#FE2C14"/>
<stop offset="0.6802" stop-color="#FF1409"/>
<stop offset="0.854" stop-color="#FF0502"/>
<stop offset="1" stop-color="#FF0000"/>
</linearGradient>
<radialGradient id="paint44_radial_280_1706" cx="0" cy="0" r="1" gradientUnits="userSpaceOnUse" gradientTransform="translate(29.289 11.4887) rotate(44.996) scale(6.21308 6.21264)">
<stop stop-color="#512D00"/>
<stop offset="1"/>
</radialGradient>
<radialGradient id="paint45_radial_280_1706" cx="0" cy="0" r="1" gradientUnits="userSpaceOnUse" gradientTransform="translate(30.4985 10.2588) scale(5.45091 5.45091)">
<stop offset="0.4873" stop-color="#F5CBC0" stop-opacity="0"/>
<stop offset="1" stop-color="#E67E62"/>
</radialGradient>
<linearGradient id="paint46_linear_280_1706" x1="29.9938" y1="9.49264" x2="30.2259" y2="5.37197" gradientUnits="userSpaceOnUse">
<stop stop-color="#BD2719"/>
<stop offset="0.0422031" stop-color="#B42717"/>
<stop offset="0.257" stop-color="#89250F"/>
<stop offset="0.4654" stop-color="#682408"/>
<stop offset="0.6634" stop-color="#502304"/>
<stop offset="0.8464" stop-color="#412201"/>
<stop offset="1" stop-color="#3C2200"/>
</linearGradient>
<radialGradient id="paint47_radial_280_1706" cx="0" cy="0" r="1" gradientUnits="userSpaceOnUse" gradientTransform="translate(22.8086 8.92397) scale(7.39161)">
<stop stop-color="white" stop-opacity="0.5"/>
<stop offset="1" stop-color="white" stop-opacity="0"/>
</radialGradient>
</defs>
</svg>
